<?xml version="1.0" encoding="UTF-8"?>
<!-- Generator: https://ezgif.com/png-to-svg -->
<svg version="1.1" xmlns="http://www.w3.org/2000/svg" width="426" height="118">
<path d="M0 0 C7.92 0 15.84 0 24 0 C24 32.67 24 65.34 24 99 C9.37 101.25 9.37 101.25 3 101 C2.69 100.14 2.69 100.14 2.38 99.27 C-1.3 89.06 -5 78.86 -8.94 68.75 C-9.23 67.99 -9.53 67.24 -9.83 66.46 C-11.3 62.68 -11.3 62.68 -13 59 C-12.97 59.61 -12.94 60.23 -12.91 60.86 C-12.31 73.25 -11.88 85.59 -12 98 C-19.92 98 -27.84 98 -36 98 C-36 67.31 -36 36.62 -36 5 C-28.41 3.68 -20.82 2.36 -13 1 C-7.59 15.97 -2.23 30.96 3 46 C2.91 44.82 2.82 43.64 2.72 42.42 C2.39 38.03 2.05 33.63 1.72 29.24 C1.57 27.34 1.43 25.44 1.28 23.54 C1.07 20.81 0.86 18.07 0.66 15.34 C0.59 14.49 0.53 13.65 0.46 12.78 C0.4 11.98 0.34 11.18 0.28 10.35 C0.22 9.66 0.17 8.96 0.11 8.24 C-0.03 5.5 0 2.75 0 0 Z " fill="#C375D9" transform="translate(265,5)"/>
<path d="M0 0 C4.37 -0.05 8.75 -0.09 13.12 -0.11 C14.61 -0.12 16.09 -0.13 17.57 -0.15 C41.3 -0.42 41.3 -0.42 50 8 C57.17 15.58 60.19 24.21 60.5 34.56 C60.22 43.98 57.7 51.3 51 58 C50.34 58 49.68 58 49 58 C53.53 71.72 58.12 85.4 63 99 C59.81 99.34 56.63 99.67 53.44 100 C52.54 100.1 51.65 100.19 50.72 100.29 C45.79 100.8 40.97 101.11 36 101 C33.49 93.72 31.36 86.36 29.31 78.94 C28.22 75 27.13 71.06 26 67 C26 76.9 26 86.8 26 97 C17.09 97 8.18 97 -1 97 C-1.02 87.01 -1.04 77.02 -1.05 67.03 C-1.06 62.39 -1.06 57.75 -1.08 53.11 C-1.09 48.62 -1.09 44.12 -1.09 39.63 C-1.1 37.93 -1.1 36.23 -1.11 34.53 C-1.14 22.99 -0.76 11.52 0 0 Z M25 22 C23.65 24.7 23.98 26.65 24.12 29.66 C24.17 30.79 24.22 31.91 24.27 33.06 C24.32 34.24 24.38 35.41 24.44 36.62 C24.49 37.81 24.54 38.99 24.6 40.21 C24.73 43.14 24.86 46.07 25 49 C28.26 48.29 29.82 47.59 32 45 C34.64 39.71 33.56 31.74 31.81 26.31 C29.74 23.67 28.21 22.87 25 22 Z " fill="#C375D9" transform="translate(113,7)"/>
<path d="M0 0 C9.2 7.71 11.64 18.56 13 30 C13.32 35.23 13.39 40.45 13.38 45.69 C13.37 46.39 13.37 47.09 13.37 47.82 C13.32 63.64 12.41 78.59 0.62 90.38 C-8.26 95.87 -17.7 96.47 -27.91 94.41 C-35.55 91.84 -40.72 86.53 -44.31 79.39 C-48.57 68.56 -49.37 57.21 -49.31 45.69 C-49.31 44.5 -49.3 43.32 -49.3 42.1 C-49.1 28.25 -47.66 14.06 -38.34 3.03 C-28.39 -6.24 -11.42 -7.35 0 0 Z M-20 16 C-23.56 23.12 -22.15 33.57 -22.13 41.28 C-22.13 43.3 -22.13 45.31 -22.14 47.33 C-22.91 62.15 -22.91 62.15 -19 76 C-18.01 76 -17.02 76 -16 76 C-14.23 69.91 -13.7 64.46 -13.73 58.13 C-13.73 56.75 -13.73 56.75 -13.73 55.34 C-13.73 53.4 -13.73 51.46 -13.74 49.52 C-13.75 46.57 -13.74 43.63 -13.73 40.69 C-13.73 38.79 -13.73 36.9 -13.73 35 C-13.73 34.13 -13.73 33.27 -13.72 32.37 C-13.77 26.64 -14.59 21.56 -16 16 C-17.32 16 -18.64 16 -20 16 Z " fill="#C274D9" transform="translate(96,11)"/>
<path d="M0 0 C0 9.24 0 18.48 0 28 C-6.92 28.87 -13.08 29.08 -20 29 C-20 34.28 -20 39.56 -20 45 C-14.39 45 -8.78 45 -3 45 C-3 52.26 -3 59.52 -3 67 C-8.61 67 -14.22 67 -20 67 C-19.5 74.92 -19.5 74.92 -19 83 C-16.79 82.98 -14.59 82.96 -12.31 82.94 C-7.91 82.9 -4.36 83.13 0 84 C0 93.57 0 103.14 0 113 C-15.06 112.33 -29.96 111.2 -45 110 C-45 74.69 -45 39.38 -45 3 C-2 -1 -2 -1 0 0 Z " fill="#C376DA" transform="translate(426,2)"/>
<path d="M0 0 C16.17 0 32.34 0 49 0 C49.02 4.27 49.04 8.54 49.06 12.94 C49.07 14.29 49.08 15.63 49.09 17.02 C49.09 18.08 49.1 19.13 49.1 20.21 C49.1 21.3 49.11 22.38 49.11 23.5 C49 26 49 26 48 27 C46.44 27.09 44.87 27.11 43.31 27.1 C42.36 27.09 41.42 27.09 40.45 27.09 C39.45 27.08 38.46 27.07 37.44 27.06 C36.44 27.06 35.44 27.05 34.42 27.05 C31.94 27.04 29.47 27.02 27 27 C27 32.94 27 38.88 27 45 C32.22 44.63 32.22 44.63 37.44 44.25 C39.29 44.13 41.15 44.06 43 44 C44 45 44 45 44.13 47.77 C44.12 55.25 43.8 62.56 43 70 C37.72 70 32.44 70 27 70 C27.25 72.6 27.25 72.6 27.5 75.25 C28.4 87.47 28.08 99.75 28 112 C22.41 113.97 16.94 115.56 11.12 116.69 C9.85 116.94 8.57 117.19 7.26 117.45 C4 118 4 118 1 118 C0.83 107.15 0.66 96.29 0.5 85.44 C0.49 84.63 0.48 83.83 0.46 83 C0.06 55.33 -0.09 27.68 0 0 Z " fill="#C375D9" transform="translate(0,0)"/>
<path d="M0 0 C7.21 0.55 14.42 1.1 21.62 1.65 C24.08 1.84 26.53 2.03 28.98 2.22 C32.51 2.48 36.03 2.75 39.55 3.03 C40.65 3.11 41.75 3.19 42.88 3.28 C43.91 3.36 44.93 3.44 45.98 3.52 C47.33 3.62 47.33 3.62 48.7 3.73 C51 4 51 4 54 5 C54 13.58 54 22.16 54 31 C49.38 31 44.76 31 40 31 C40.11 33.6 40.11 33.6 40.22 36.26 C41.02 56.85 41.1 77.4 41 98 C32.09 98 23.18 98 14 98 C14 74.24 14 50.48 14 26 C9.38 26.33 4.76 26.66 0 27 C0 18.09 0 9.18 0 0 Z " fill="#C375D9" transform="translate(173,6)"/>
<path d="M0 0 C0 8.25 0 16.5 0 25 C-4.95 25 -9.9 25 -15 25 C-15 49.09 -15 73.18 -15 98 C-23.25 98 -31.5 98 -40 98 C-40.33 74.9 -40.66 51.8 -41 28 C-45.62 28 -50.24 28 -55 28 C-55 19.42 -55 10.84 -55 2 C-50.24 1.21 -45.78 0.8 -41 0.68 C-40.24 0.66 -39.48 0.64 -38.69 0.62 C-37.09 0.58 -35.49 0.54 -33.88 0.5 C-31.47 0.44 -29.06 0.37 -26.65 0.31 C-17.76 0.07 -8.89 -0.05 0 0 Z " fill="#C274D9" transform="translate(378,12)"/>
<path d="M0 0 C8.91 0 17.82 0 27 0 C27.75 32.67 28.14 65.32 28 98 C18.76 98 9.52 98 0 98 C0 65.66 0 33.32 0 0 Z " fill="#C478DA" transform="translate(294,10)"/>
<path d="M0 0 C0.33 0 0.66 0 1 0 C1.23 1.92 1.46 3.84 1.68 5.76 C1.97 8.01 1.97 8.01 2.51 10.24 C3.06 13.35 3.11 16.24 3.1 19.39 C3.09 20.6 3.09 21.8 3.09 23.04 C3.08 24.28 3.07 25.53 3.06 26.81 C3.06 28.08 3.05 29.34 3.05 30.65 C3.04 33.76 3.02 36.88 3 40 C2.67 40 2.34 40 2 40 C1.67 37.03 1.34 34.06 1 31 C0.67 31 0.34 31 0 31 C0 20.77 0 10.54 0 0 Z " fill="#D59FE4" transform="translate(25,71)"/>
<path d="M0 0 C0.03 2.21 0.05 4.42 0.06 6.62 C0.07 7.85 0.09 9.08 0.1 10.35 C0.01 13.68 -0.36 16.74 -1 20 C-1.33 20 -1.66 20 -2 20 C-2 14.06 -2 8.12 -2 2 C-9.59 2 -17.18 2 -25 2 C-25 1.67 -25 1.34 -25 1 C-16.64 0.16 -8.4 -0.12 0 0 Z " fill="#D093E1" transform="translate(378,12)"/>
</svg>
