<?xml version="1.0" encoding="UTF-8"?>
<!-- Generator: https://ezgif.com/png-to-svg -->
<svg version="1.1" xmlns="http://www.w3.org/2000/svg" width="1700" height="1000">
<path d="M0 0 C-0.21 2.31 -0.21 2.31 -1 5 C-3.07 6.62 -3.07 6.62 -5.69 8 C-17.66 14.73 -24.23 23.87 -28 37 C-28.5 40.61 -28.54 44.15 -28.5 47.79 C-28.5 48.82 -28.51 49.85 -28.52 50.91 C-28.53 54.32 -28.51 57.74 -28.5 61.15 C-28.5 63.61 -28.51 66.07 -28.52 68.53 C-28.53 73.81 -28.53 79.09 -28.52 84.37 C-28.5 92.01 -28.51 99.65 -28.53 107.28 C-28.55 119.68 -28.57 132.08 -28.56 144.48 C-28.56 145.22 -28.56 145.96 -28.56 146.72 C-28.56 149.72 -28.56 152.72 -28.56 155.73 C-28.56 164.01 -28.56 172.29 -28.57 180.57 C-28.57 181.31 -28.57 182.05 -28.57 182.82 C-28.57 195.18 -28.59 207.54 -28.61 219.91 C-28.63 227.53 -28.63 235.15 -28.62 242.77 C-28.61 248.6 -28.62 254.43 -28.63 260.26 C-28.63 262.66 -28.63 265.05 -28.62 267.45 C-28.61 270.71 -28.62 273.96 -28.63 277.22 C-28.62 278.18 -28.61 279.14 -28.61 280.12 C-28.61 280.99 -28.62 281.86 -28.63 282.76 C-28.63 283.51 -28.63 284.26 -28.63 285.04 C-29.11 287.58 -29.91 288.5 -32 290 C-47.95 288.23 -64.91 273.73 -75 262 C-86.39 247.36 -95.33 230.32 -96.48 211.56 C-96.77 197.7 -96.77 197.7 -103.65 186.37 C-106.09 184.48 -108.59 182.76 -111.21 181.13 C-113.83 179.47 -116.14 177.5 -118.5 175.5 C-119.38 174.79 -120.26 174.07 -121.16 173.34 C-125.65 169.64 -130.04 165.84 -134.45 162.05 C-142.61 155.03 -150.84 148.11 -159.19 141.31 C-162.32 138.74 -165.41 136.12 -168.5 133.5 C-178.44 124.85 -178.44 124.85 -189 117 C-188.94 131.82 -188.86 146.64 -188.76 161.46 C-188.72 168.35 -188.68 175.23 -188.65 182.11 C-188.63 188.76 -188.59 195.4 -188.54 202.05 C-188.52 204.58 -188.51 207.11 -188.5 209.65 C-188.49 213.2 -188.46 216.75 -188.43 220.31 C-188.43 221.35 -188.44 222.39 -188.44 223.46 C-188.31 233.67 -186.07 243.31 -179 251 C-175.5 253.66 -171.82 255.84 -168 258 C-166.43 258.91 -164.87 259.82 -163.31 260.75 C-162.67 261.12 -162.03 261.48 -161.36 261.86 C-160.91 262.24 -160.46 262.61 -160 263 C-160 263.99 -160 264.98 -160 266 C-162.47 267.24 -164.09 267.13 -166.86 267.13 C-167.89 267.13 -168.91 267.13 -169.97 267.14 C-171.1 267.13 -172.23 267.13 -173.39 267.13 C-174.58 267.13 -175.77 267.13 -176.99 267.13 C-180.25 267.14 -183.51 267.14 -186.77 267.13 C-190.18 267.13 -193.59 267.13 -197 267.14 C-202.72 267.14 -208.44 267.14 -214.17 267.13 C-220.79 267.12 -227.41 267.13 -234.03 267.13 C-239.71 267.14 -245.39 267.14 -251.07 267.13 C-254.47 267.13 -257.86 267.13 -261.26 267.14 C-265.04 267.14 -268.82 267.13 -272.61 267.13 C-274.3 267.13 -274.3 267.13 -276.03 267.14 C-277.06 267.13 -278.08 267.13 -279.14 267.13 C-280.04 267.13 -280.93 267.13 -281.85 267.13 C-284 267 -284 267 -286 266 C-285.94 263.73 -285.94 263.73 -285 261 C-282.63 259.53 -280.46 258.39 -277.94 257.25 C-269.78 253.23 -263.55 248.46 -260.06 239.75 C-258.62 234.67 -257.87 230.21 -257.86 224.92 C-257.85 223.69 -257.85 222.47 -257.84 221.21 C-257.84 219.87 -257.84 218.52 -257.84 217.17 C-257.83 215.75 -257.83 214.32 -257.82 212.9 C-257.81 209.04 -257.8 205.17 -257.8 201.31 C-257.8 198.89 -257.79 196.47 -257.79 194.06 C-257.77 186.49 -257.76 178.92 -257.76 171.35 C-257.76 162.63 -257.74 153.9 -257.71 145.18 C-257.69 138.43 -257.68 131.67 -257.68 124.92 C-257.68 120.89 -257.67 116.87 -257.65 112.84 C-257.64 109.05 -257.63 105.25 -257.64 101.46 C-257.64 100.07 -257.64 98.69 -257.63 97.3 C-257.57 88.49 -257.55 80.31 -263.25 73.19 C-269.14 68.5 -274.39 66.4 -281.64 64.61 C-284 64 -284 64 -286 63 C-285.67 61.35 -285.34 59.7 -285 58 C-273.33 55.88 -261.63 53.94 -249.9 52.16 C-248.11 51.88 -246.32 51.6 -244.53 51.32 C-241.9 50.91 -239.27 50.51 -236.64 50.11 C-235.84 49.98 -235.05 49.86 -234.23 49.72 C-230.25 49.13 -226.86 48.74 -223 50 C-220.49 51.97 -220.49 51.97 -217.88 54.5 C-216.9 55.42 -215.93 56.34 -214.95 57.26 C-214.46 57.72 -213.97 58.18 -213.46 58.66 C-211.28 60.66 -208.99 62.52 -206.69 64.38 C-202.39 67.84 -198.18 71.39 -194 75 C-189.88 78.55 -185.73 82.07 -181.5 85.5 C-176.65 89.43 -171.92 93.48 -167.19 97.56 C-163.67 100.59 -160.11 103.57 -156.5 106.5 C-152.27 109.93 -148.12 113.45 -144 117 C-138.99 121.32 -133.91 125.55 -128.78 129.72 C-125.66 132.28 -122.58 134.89 -119.5 137.5 C-108.93 146.48 -108.93 146.48 -98 155 C-97.95 142.38 -97.92 129.76 -97.9 117.13 C-97.89 111.27 -97.87 105.41 -97.85 99.55 C-97.83 93.89 -97.82 88.23 -97.81 82.57 C-97.81 80.41 -97.8 78.26 -97.79 76.1 C-97.77 73.07 -97.77 70.05 -97.77 67.02 C-97.76 65.69 -97.76 65.69 -97.75 64.34 C-97.78 56.05 -98.6 48.6 -104 42 C-108.38 37.87 -112.14 35.88 -117.88 34.19 C-118.56 33.97 -119.25 33.76 -119.96 33.53 C-121.64 33.01 -123.32 32.5 -125 32 C-125.33 30.35 -125.66 28.7 -126 27 C-113.8 23.87 -101.54 21.06 -89.24 18.34 C-87.28 17.9 -85.32 17.47 -83.36 17.03 C-79.28 16.13 -75.19 15.22 -71.11 14.32 C-65.91 13.17 -60.72 12.02 -55.52 10.86 C-50.51 9.75 -45.5 8.64 -40.49 7.53 C-39.56 7.32 -38.62 7.11 -37.66 6.9 C-33.31 5.93 -28.96 4.97 -24.61 4.02 C-21.68 3.37 -18.75 2.72 -15.83 2.05 C-13.98 1.64 -13.98 1.64 -12.09 1.22 C-10.53 0.86 -10.53 0.86 -8.93 0.5 C-5.9 -0.02 -3.07 -0.09 0 0 Z " fill="#9100D2" transform="translate(1571,328)"/>
<path d="M0 0 C0.75 0.19 1.49 0.38 2.26 0.57 C13.78 3.61 24.09 8.91 34.67 14.31 C46.32 20.24 57.05 24.38 70.14 25.75 C72.36 26.03 72.36 26.03 76 27 C79.8 32.48 79.16 41.58 79.17 48.07 C79.17 48.81 79.18 49.56 79.18 50.33 C79.19 52.74 79.19 55.15 79.19 57.56 C79.19 58.79 79.19 58.79 79.19 60.05 C79.17 70.16 79.03 80.23 78.19 90.31 C78.08 91.64 78.08 91.64 77.98 93 C77.44 98.44 76.12 102.95 74 108 C70.88 105.21 69.4 103.11 68.25 99.1 C67.81 97.65 67.81 97.65 67.36 96.18 C66.91 94.64 66.91 94.64 66.44 93.06 C60.94 75.69 53.06 59.76 41 46 C40.3 45.19 39.59 44.37 38.87 43.53 C28.08 31.91 12.05 22.57 -4.01 21.66 C-22.35 21.26 -38.38 27 -51.75 39.74 C-53.18 41.15 -54.59 42.57 -56 44 C-56.81 44.82 -57.63 45.63 -58.47 46.47 C-64.38 52.7 -68.81 59.53 -73 67 C-73.6 68.06 -74.19 69.11 -74.81 70.2 C-85.64 90.56 -92.06 114.9 -92.2 137.99 C-92.21 138.73 -92.22 139.46 -92.22 140.22 C-92.24 142.58 -92.25 144.95 -92.25 147.31 C-92.25 148.12 -92.25 148.93 -92.25 149.76 C-92.24 161.75 -91.78 173.29 -89 185 C-88.71 186.29 -88.42 187.57 -88.12 188.9 C-83.13 209.16 -74.67 227.43 -62 244 C-61.21 245.05 -61.21 245.05 -60.41 246.12 C-54.09 254.05 -45.93 259.84 -36.94 264.38 C-35.98 264.86 -35.98 264.86 -35.01 265.35 C-26.19 269.6 -17.98 271.5 -8.19 271.38 C-6.82 271.39 -6.82 271.39 -5.42 271.41 C-0.54 271.39 3.17 271.36 7 268 C8.19 266.12 8.19 266.12 8.75 263.94 C9.08 262.9 9.08 262.9 9.42 261.84 C11.07 253.74 11.18 245.49 11.24 237.25 C11.25 235.62 11.25 235.62 11.26 233.95 C11.28 231.65 11.29 229.36 11.3 227.06 C11.31 224.73 11.33 222.4 11.36 220.07 C11.4 216.67 11.42 213.28 11.43 209.88 C11.45 208.34 11.45 208.34 11.48 206.77 C11.46 199.5 10.68 190.8 5.36 185.32 C4.91 184.88 4.46 184.45 4 184 C4 183.34 4 182.68 4 182 C3.43 181.73 2.86 181.46 2.27 181.18 C-0.03 179.98 -2.1 178.61 -4.25 177.19 C-9.34 174.09 -14.47 172.42 -20.15 170.77 C-25.36 169.24 -30.12 167.35 -35 165 C-34.12 160.12 -34.12 160.12 -33 159 C-31.18 158.9 -29.35 158.88 -27.53 158.88 C-25.75 158.88 -25.75 158.88 -23.93 158.88 C-21.96 158.88 -21.96 158.88 -19.94 158.89 C-18.55 158.89 -17.16 158.89 -15.78 158.89 C-11.99 158.89 -8.21 158.89 -4.43 158.9 C-0.48 158.9 3.47 158.91 7.42 158.91 C14.9 158.91 22.39 158.92 29.87 158.93 C38.39 158.94 46.91 158.94 55.42 158.95 C72.95 158.96 90.47 158.98 108 159 C108.33 160.65 108.66 162.3 109 164 C108.49 164.22 107.98 164.44 107.45 164.66 C104.96 165.75 102.48 166.88 100 168 C98.98 168.45 97.96 168.89 96.91 169.36 C90.41 172.35 86.42 174.63 83 181 C81.83 184.47 81.91 187.73 81.95 191.37 C81.97 193.31 81.97 193.31 81.99 195.29 C82 196.32 82 196.32 82.01 197.37 C82.06 201.81 82.04 206.24 82.04 210.68 C82.05 214.57 82.07 218.45 82.13 222.34 C82.18 226.12 82.19 229.88 82.16 233.66 C82.16 235.09 82.18 236.52 82.21 237.95 C82.47 249.05 82.47 249.05 78.87 253.82 C76.35 256.13 73.84 258.09 71 260 C69.67 260.93 69.67 260.93 68.31 261.88 C37.53 282.86 1.89 290.16 -34.88 290.38 C-35.6 290.38 -36.33 290.39 -37.07 290.4 C-50.87 290.52 -64.64 289.03 -77.75 284.5 C-78.48 284.25 -79.2 284 -79.95 283.74 C-112.71 271.91 -137.81 248.95 -155 219 C-155.88 217.47 -155.88 217.47 -156.77 215.91 C-165.15 200.28 -170.65 182.56 -173 165 C-173.09 164.34 -173.18 163.68 -173.28 162.99 C-178.24 123.71 -168.59 82.08 -144.7 50.26 C-141.64 46.35 -138.37 42.65 -135 39 C-134.51 38.46 -134.02 37.93 -133.52 37.37 C-113.99 16.08 -87.47 1.86 -59 -3 C-58 -3.18 -57 -3.37 -55.98 -3.55 C-37.65 -6.06 -17.84 -4.58 0 0 Z " fill="#8F00D0" transform="translate(304,316)"/>
<path d="M0 0 C26.4 0 52.8 0 80 0 C80.5 1.49 80.5 1.49 81 3 C78.21 6.28 74.77 8.01 71 10 C70.34 10 69.68 10 69 10 C65.13 17.48 63.55 24.2 63.67 32.6 C63.67 33.92 63.67 33.92 63.68 35.27 C63.68 37.12 63.7 38.96 63.72 40.81 C63.75 43.62 63.76 46.44 63.77 49.25 C63.77 51.05 63.79 52.86 63.8 54.66 C63.8 55.5 63.81 56.33 63.81 57.19 C63.87 61.89 64.23 66.36 65 71 C68.78 72.74 71.77 73.26 75.92 73.29 C77.67 73.31 77.67 73.31 79.46 73.33 C80.71 73.33 81.96 73.33 83.25 73.34 C85.19 73.35 85.19 73.35 87.17 73.36 C89.9 73.37 92.63 73.37 95.36 73.37 C98.86 73.37 102.36 73.4 105.85 73.43 C109.19 73.46 112.54 73.46 115.88 73.46 C117.13 73.48 118.39 73.49 119.68 73.5 C120.84 73.5 122.01 73.49 123.21 73.49 C124.23 73.49 125.26 73.49 126.31 73.49 C129.7 72.87 130.86 71.64 133 69 C134.14 66.72 134.14 65.41 134.16 62.88 C134.17 62.02 134.18 61.17 134.19 60.3 C134.19 59.37 134.2 58.45 134.2 57.5 C134.21 56.54 134.21 55.59 134.22 54.61 C134.23 52.59 134.24 50.57 134.24 48.54 C134.25 45.47 134.28 42.4 134.31 39.33 C134.32 37.37 134.32 35.4 134.33 33.43 C134.35 32.07 134.35 32.07 134.37 30.68 C134.34 24.21 133.88 17.18 129.35 12.18 C126.62 9.73 123.73 7.83 120.62 5.88 C118 4 118 4 117 0 C143.4 0 169.8 0 197 0 C197.33 0.99 197.66 1.98 198 3 C195.75 5.5 193.58 6.8 190.56 8.25 C185.8 10.82 184.12 13.05 182 18 C181.11 21.59 180.87 24.94 180.85 28.63 C180.85 29.75 180.84 30.87 180.83 32.03 C180.83 33.25 180.83 34.47 180.82 35.73 C180.81 37.67 180.81 37.67 180.8 39.64 C180.78 43.92 180.77 48.2 180.76 52.48 C180.76 53.96 180.75 55.44 180.75 56.92 C180.73 63.86 180.72 70.8 180.71 77.74 C180.7 85.74 180.67 93.73 180.63 101.73 C180.6 107.92 180.59 114.11 180.58 120.31 C180.58 124 180.57 127.69 180.55 131.39 C180.52 135.51 180.52 139.63 180.53 143.76 C180.52 144.97 180.5 146.18 180.49 147.43 C180.54 155.47 181.43 162.43 187.31 168.31 C189.43 169.64 191.56 170.86 193.75 172.06 C197 174 197 174 198 177 C195.87 179.13 191.3 178.45 188.36 178.59 C187.44 178.63 186.52 178.68 185.57 178.72 C172.78 179.23 160 178.88 147.21 178.61 C143.79 178.53 140.37 178.47 136.95 178.4 C130.3 178.28 123.65 178.14 117 178 C117.8 174.19 117.8 174.19 119.62 172.5 C122 171 122 171 125.5 169.31 C130.28 166.65 132.08 162.23 133.54 157.13 C134 155.01 134.14 153.14 134.16 150.99 C134.17 150.21 134.18 149.43 134.19 148.63 C134.19 147.8 134.2 146.96 134.2 146.11 C134.21 145.24 134.21 144.37 134.22 143.48 C134.23 141.65 134.24 139.82 134.24 137.99 C134.25 135.21 134.28 132.42 134.31 129.64 C134.32 127.86 134.32 126.07 134.33 124.29 C134.35 123.05 134.35 123.05 134.37 121.79 C134.35 116.47 133.62 112.68 131 108 C127.84 106.95 125.61 106.87 122.29 106.87 C121.12 106.87 119.95 106.86 118.74 106.86 C117.48 106.86 116.21 106.87 114.91 106.87 C113.61 106.87 112.31 106.87 110.97 106.86 C108.23 106.86 105.48 106.86 102.73 106.87 C99.21 106.88 95.69 106.87 92.17 106.87 C88.81 106.86 85.45 106.86 82.09 106.87 C80.83 106.87 79.56 106.86 78.26 106.86 C77.09 106.86 75.92 106.87 74.71 106.87 C73.68 106.87 72.64 106.87 71.58 106.87 C68.88 106.89 68.88 106.89 66 108 C63.65 112.99 63.69 117.84 63.7 123.24 C63.69 124.56 63.69 124.56 63.69 125.91 C63.68 127.76 63.68 129.62 63.68 131.48 C63.69 134.29 63.66 137.11 63.64 139.93 C63.64 141.74 63.64 143.55 63.64 145.36 C63.63 146.19 63.62 147.03 63.61 147.88 C63.66 154.82 64.79 161.22 69.19 166.75 C72.1 169.08 75.08 170.97 78.33 172.79 C80 174 80 174 81 177 C76.12 178.87 71.65 179.44 66.5 179.88 C54.65 181.08 44.25 184.51 33.16 188.7 C7.93 198.25 7.93 198.25 -6 198 C-4.47 194.29 -2.23 192.15 0.69 189.44 C15.81 174.51 17.65 158.69 17.81 138.5 C17.84 136.31 17.87 134.11 17.9 131.92 C18.15 109.85 17.97 87.77 17.77 65.7 C17.75 62.82 17.73 59.93 17.71 57.04 C17.68 52.44 17.63 47.84 17.58 43.24 C17.56 41.53 17.54 39.82 17.53 38.11 C17.73 23.84 17.73 23.84 11.81 11.19 C8.88 8.91 6.11 7.53 2.67 6.19 C1 5 1 5 0 0 Z " fill="#9700D7" transform="translate(936,416)"/>
<path d="M0 0 C6.63 -0.33 13.26 -0.56 19.9 -0.71 C22.16 -0.78 24.41 -0.87 26.66 -0.98 C46.38 -1.95 46.38 -1.95 51.79 2.67 C54.73 5.81 56.84 9.29 59 13 C60.07 14.43 61.16 15.85 62.28 17.24 C63.17 18.45 64.05 19.66 64.94 20.88 C68.9 26.23 72.94 31.5 77.12 36.69 C82.52 43.38 87.78 50.17 93 57 C99.47 65.45 106 73.85 112.59 82.21 C114.98 85.24 117.36 88.28 119.75 91.31 C120.17 91.85 120.6 92.39 121.03 92.94 C123.59 96.19 126.13 99.45 128.67 102.72 C129.29 103.52 129.92 104.32 130.56 105.15 C131.27 106.07 131.27 106.07 132 107 C132.07 96.2 132.12 85.41 132.16 74.61 C132.17 69.6 132.19 64.58 132.23 59.57 C132.26 54.72 132.28 49.88 132.28 45.04 C132.29 43.19 132.3 41.35 132.32 39.51 C132.34 36.92 132.34 34.32 132.34 31.73 C132.35 30.98 132.36 30.23 132.37 29.45 C132.34 23.39 131.5 16.82 127.35 12.14 C123.93 9.03 120.24 6.86 116 5 C116 3.35 116 1.7 116 0 C142.4 0 168.8 0 196 0 C195 5 195 5 193.07 6.41 C192.29 6.77 191.5 7.13 190.69 7.5 C184.89 10.44 182.09 13.84 180 20 C179.7 22.77 179.7 22.77 179.74 25.73 C179.73 26.87 179.73 28.01 179.72 29.19 C179.72 30.44 179.72 31.68 179.73 32.97 C179.72 34.29 179.72 35.6 179.71 36.96 C179.7 40.58 179.7 44.2 179.7 47.81 C179.7 50.84 179.69 53.87 179.69 56.91 C179.68 64.07 179.68 71.24 179.68 78.4 C179.69 85.76 179.68 93.11 179.66 100.46 C179.64 106.8 179.63 113.14 179.64 119.48 C179.64 123.25 179.64 127.02 179.62 130.8 C179.36 162.61 179.36 162.61 190.31 192.12 C192 195 192 195 192 198 C179.22 197.57 169.65 191.03 161 182 C154.55 174.85 148.77 167.16 142.96 159.49 C139.37 154.77 135.72 150.11 132 145.5 C127.18 139.52 122.5 133.45 117.86 127.34 C114.29 122.65 110.64 118.02 106.94 113.44 C102.86 108.39 98.92 103.27 95.06 98.06 C90.45 91.84 85.65 85.8 80.74 79.82 C74.63 72.36 68.78 64.71 63 57 C62.91 70.16 62.84 83.32 62.79 96.48 C62.77 102.59 62.74 108.71 62.7 114.82 C62.65 120.72 62.63 126.62 62.62 132.52 C62.61 134.77 62.6 137.02 62.58 139.26 C62.55 142.42 62.54 145.57 62.55 148.73 C62.53 149.65 62.52 150.58 62.5 151.53 C62.54 157.51 63.63 162 67 167 C68.89 168.81 68.89 168.81 71 169.81 C71.69 170.2 72.38 170.59 73.09 170.98 C73.72 171.32 74.35 171.65 75 172 C77.5 173.56 77.5 173.56 79 175 C79 176.32 79 177.64 79 179 C52.6 179 26.2 179 -1 179 C0 174 0 174 2.11 172.48 C2.98 172.05 3.85 171.63 4.75 171.19 C9.8 168.37 12.93 165.47 15 160 C16.2 153.64 16.15 147.36 16.15 140.91 C16.15 139.7 16.15 138.5 16.16 137.26 C16.16 133.98 16.17 130.69 16.17 127.41 C16.17 125.35 16.17 123.3 16.17 121.24 C16.18 114.05 16.19 106.86 16.19 99.67 C16.18 92.99 16.2 86.32 16.21 79.64 C16.22 73.89 16.23 68.13 16.23 62.38 C16.23 58.95 16.23 55.53 16.24 52.1 C16.25 48.27 16.25 44.44 16.24 40.61 C16.25 39.49 16.25 38.38 16.26 37.22 C16.31 23.08 16.31 23.08 10 11 C7.39 9.41 4.78 7.95 2.05 6.59 C1.37 6.07 0.7 5.54 0 5 C-0.13 2.4 -0.13 2.4 0 0 Z " fill="#9700D6" transform="translate(567,416)"/>
<path d="M0 0 C2.39 0.41 4.64 0.51 7.06 0.5 C7.86 0.51 8.67 0.51 9.49 0.51 C12.76 0.35 15.95 -0.12 19.19 -0.62 C30.32 16.99 44.84 40 45.19 61.38 C37.93 59.24 31.68 56.27 25.19 52.38 C24.28 51.87 23.37 51.37 22.43 50.84 C14.99 46.19 11.39 40.37 7.1 32.96 C1.28 22.94 -5.21 17.2 -15.81 12.38 C-16.56 12.04 -17.3 11.7 -18.07 11.34 C-27.62 7.77 -41.14 7.5 -50.69 11.13 C-52.09 11.84 -53.47 12.58 -54.81 13.38 C-55.76 13.89 -56.71 14.41 -57.69 14.94 C-61.72 19.57 -63.8 25.07 -63.82 31.23 C-62.66 39.58 -58.62 46.49 -51.92 51.68 C-50.48 52.7 -49.03 53.7 -47.56 54.69 C-46.78 55.24 -45.99 55.79 -45.18 56.35 C-42.74 58.05 -40.28 59.72 -37.81 61.38 C-36.68 62.14 -36.68 62.14 -35.53 62.92 C-31.83 65.41 -28.12 67.88 -24.39 70.34 C-12.25 78.37 -0.21 86.59 11.55 95.18 C12.66 95.99 13.77 96.8 14.88 97.6 C32.52 110.36 44.97 125.83 48.77 147.71 C50.98 167.01 48.8 189.2 36.81 205.19 C35.63 206.61 34.42 208 33.19 209.38 C32.39 210.3 32.39 210.3 31.57 211.24 C19.67 224.08 1.84 229.51 -15.27 230.6 C-19.1 230.72 -22.92 230.76 -26.75 230.75 C-27.77 230.75 -27.77 230.75 -28.8 230.76 C-42.71 230.73 -55.45 228.6 -68.75 224.63 C-77.93 222 -86.14 222.75 -94.81 226.38 C-96.84 226.25 -96.84 226.25 -98.81 225.38 C-112.19 208.83 -113.39 184.73 -112.5 164.44 C-112.46 163.35 -112.43 162.25 -112.39 161.12 C-112.35 160.06 -112.31 159 -112.26 157.91 C-112.22 156.97 -112.19 156.02 -112.15 155.05 C-111.79 152.21 -110.98 149.98 -109.81 147.38 C-105.73 150.9 -103.65 155.06 -101.19 159.75 C-96.66 168.14 -91.62 175.83 -85.81 183.38 C-85.24 184.13 -84.67 184.89 -84.09 185.67 C-71.88 200.76 -53.61 209.18 -34.81 212.38 C-24.13 213.41 -14.17 212.17 -5.64 205.25 C1.67 197.75 3.6 189.7 3.55 179.52 C2.97 174.49 0.75 170.67 -1.81 166.38 C-2.26 165.31 -2.26 165.31 -2.73 164.22 C-4.1 161.88 -5.39 161.55 -7.81 160.38 C-9.1 159.51 -10.36 158.61 -11.61 157.69 C-12.33 157.16 -13.06 156.63 -13.8 156.09 C-14.95 155.24 -14.95 155.24 -16.12 154.38 C-21.68 150.33 -27.25 146.34 -33 142.57 C-40.58 137.58 -48.02 132.4 -55.46 127.2 C-61.57 122.92 -61.57 122.92 -67.75 118.74 C-86.64 106.1 -99.41 91.52 -104.09 68.86 C-107.1 52.07 -104.1 36.74 -94.81 22.38 C-83.83 7.73 -68.1 -1.08 -50.2 -4.29 C-33.17 -6.64 -16.59 -3.66 0 0 Z " fill="#9600D5" transform="translate(881.8125,382.62109375)"/>
<path d="M0 0 C1.28 -0.02 1.28 -0.02 2.59 -0.04 C3.82 -0.04 3.82 -0.04 5.07 -0.04 C5.82 -0.05 6.56 -0.05 7.32 -0.06 C9.31 0.19 9.31 0.19 12.31 2.19 C12.5 4.98 12.5 4.98 12.31 8.38 C12.21 14 12.17 17.48 15.31 22.19 C19.03 25.22 23.25 27.16 27.56 29.19 C31.12 30.93 33.21 32.74 35.31 36.19 C35.69 37.85 36.02 39.51 36.31 41.19 C35.36 41.23 34.4 41.28 33.42 41.32 C3.97 42.73 -24.7 45.66 -53.69 51.19 C-53.62 56.79 -53.53 62.4 -53.43 68 C-53.39 69.91 -53.36 71.81 -53.34 73.72 C-53.31 76.46 -53.26 79.21 -53.2 81.95 C-53.19 82.8 -53.19 83.65 -53.18 84.52 C-53.06 89.2 -52.73 92.39 -49.69 96.19 C-47.38 97.34 -46 97.33 -43.43 97.36 C-42.55 97.38 -41.66 97.39 -40.76 97.4 C-39.8 97.41 -38.84 97.42 -37.85 97.43 C-36.86 97.43 -35.87 97.44 -34.85 97.45 C-32.75 97.46 -30.65 97.47 -28.54 97.48 C-25.36 97.5 -22.18 97.54 -19 97.59 C-2.24 97.72 9.53 95.82 22.43 84.3 C28.91 77.69 32.47 69.48 36.31 61.19 C36.64 60.53 36.97 59.87 37.31 59.19 C38.3 59.19 39.29 59.19 40.31 59.19 C42.73 66.44 41.21 74.76 40.12 82.19 C40 83.09 39.87 83.98 39.73 84.91 C38.08 95.61 35.41 106.15 31.31 116.19 C30.03 116.19 28.74 116.2 27.41 116.21 C15.18 116.26 2.94 116.34 -9.3 116.42 C-15.59 116.47 -21.87 116.51 -28.16 116.53 C-34.25 116.56 -40.34 116.6 -46.43 116.65 C-48.73 116.67 -51.03 116.68 -53.33 116.69 C-74.43 116.75 -94.78 118.81 -115.38 123.42 C-119.54 124.27 -123.44 124.33 -127.69 124.19 C-127.69 123.53 -127.69 122.87 -127.69 122.19 C-126.07 120.78 -124.39 119.44 -122.69 118.12 C-109.81 107.77 -101.9 96.8 -99.69 80.19 C-99.5 76.83 -99.52 73.55 -99.69 70.19 C-109.29 75.15 -118.71 80.15 -127.69 86.19 C-128.69 83.19 -128.69 83.19 -128.04 81.4 C-127.68 80.75 -127.32 80.09 -126.95 79.41 C-126.55 78.68 -126.14 77.94 -125.73 77.19 C-125.28 76.4 -124.84 75.62 -124.38 74.81 C-123.91 74 -123.45 73.19 -122.98 72.36 C-103.97 39.58 -70.61 15.32 -34.07 5.48 C-22.7 2.56 -11.78 0.01 0 0 Z " fill="#9E00DC" transform="translate(520.6875,478.8125)"/>
<path d="M0 0 C34.98 0 69.96 0 106 0 C105.67 1.65 105.34 3.3 105 5 C104.01 5.29 103.02 5.58 102 5.88 C93.31 8.54 85.67 11.03 80.06 18.62 C78.28 22.61 77.87 26.02 77.87 30.38 C77.86 31.47 77.86 32.56 77.85 33.68 C77.85 34.87 77.85 36.06 77.85 37.29 C77.85 38.55 77.85 39.81 77.84 41.11 C77.84 44.56 77.83 48.01 77.83 51.46 C77.83 53.62 77.83 55.77 77.83 57.93 C77.82 65.46 77.81 72.99 77.81 80.51 C77.82 87.53 77.8 94.54 77.79 101.55 C77.78 107.57 77.77 113.6 77.77 119.62 C77.77 123.22 77.77 126.82 77.76 130.41 C77.75 134.42 77.75 138.44 77.76 142.45 C77.75 143.64 77.75 144.82 77.74 146.05 C77.65 155.08 77.65 155.08 81.59 162.98 C86.7 167.39 91.64 169.83 98 172 C99.54 172.58 101.08 173.16 102.62 173.75 C104.3 174.37 104.3 174.37 106 175 C106 176.32 106 177.64 106 179 C71.02 179 36.04 179 0 179 C0.33 177.35 0.66 175.7 1 174 C2.01 173.69 3.03 173.37 4.07 173.05 C5.42 172.62 6.77 172.18 8.12 171.75 C9.12 171.44 9.12 171.44 10.14 171.13 C16.78 168.98 22.05 165.93 26 160 C28.71 154.08 28.29 147.98 28.27 141.6 C28.28 140.36 28.28 139.11 28.29 137.83 C28.3 134.42 28.3 131.01 28.3 127.61 C28.3 124.76 28.31 121.91 28.31 119.06 C28.32 112.33 28.32 105.6 28.32 98.87 C28.31 91.95 28.32 85.02 28.34 78.09 C28.36 72.13 28.37 66.17 28.36 60.21 C28.36 56.66 28.36 53.11 28.38 49.55 C28.39 45.59 28.38 41.62 28.37 37.65 C28.38 36.49 28.39 35.32 28.4 34.12 C28.35 26.43 27.8 19.79 22.38 13.88 C17.89 10.28 12.23 8.82 6.78 7.27 C4.57 6.59 4.57 6.59 1 5 C0.67 3.35 0.34 1.7 0 0 Z " fill="#9700D6" transform="translate(1160,416)"/>
<path d="M0 0 C0.72 0.14 1.45 0.27 2.19 0.41 C9.37 3.49 12.97 11.79 16.8 18.16 C21.27 25.45 25.89 32.58 33.69 36.56 C37.66 38.61 39.52 40.29 41.44 44.38 C42.12 47.69 42.12 47.69 42.44 50.38 C28.21 54.74 13.81 56.57 -0.97 58.02 C-30.79 60.95 -60.33 65.65 -88.88 74.94 C-89.74 75.22 -90.61 75.5 -91.5 75.79 C-96.58 77.5 -101 79.56 -105.56 82.38 C-104.24 82.38 -102.92 82.38 -101.56 82.38 C-101.25 83.26 -100.93 84.15 -100.61 85.07 C-97.83 89.56 -94.53 91 -89.88 93.25 C-89.08 93.65 -88.28 94.05 -87.46 94.47 C-85.5 95.45 -83.54 96.42 -81.56 97.38 C-81.56 98.03 -81.56 98.69 -81.56 99.38 C-106.22 100.15 -130.77 95.4 -149.69 78.4 C-152.44 75.42 -154.19 72.32 -155.69 68.56 C-155.49 63.49 -152.03 60.86 -148.56 57.38 C-145.99 55.12 -143.29 53.1 -140.5 51.12 C-139.73 50.57 -138.95 50.02 -138.15 49.46 C-102.75 24.87 -60.15 13.28 -18.96 2.49 C-17.82 2.19 -17.82 2.19 -16.65 1.88 C-5.16 -1.09 -5.16 -1.09 0 0 Z " fill="#7700BE" transform="translate(729.5625,300.625)"/>
<path d="M0 0 C1.27 0.34 2.54 0.69 3.85 1.04 C42.85 11.73 83.02 24.72 115.38 49.62 C116.22 50.26 116.22 50.26 117.09 50.9 C124.93 56.8 124.93 56.8 125.89 60.75 C125.46 67.06 121.49 71.73 117.12 76 C101.26 89.26 76.75 95.87 56.38 94.25 C54.71 94.06 53.04 93.86 51.38 93.62 C54.41 90.2 57.19 88.6 61.44 86.94 C63 86.31 63 86.31 64.6 85.68 C66.51 84.95 68.44 84.27 70.38 83.62 C71.6 80.11 71.6 80.11 72.38 76.62 C73.69 76.62 75.01 76.62 76.38 76.62 C42.21 61.67 5.76 56.17 -31.09 52.13 C-54.37 49.58 -54.37 49.58 -64.25 47.56 C-65.01 47.41 -65.78 47.26 -66.56 47.11 C-68.6 46.65 -68.6 46.65 -71.62 45.62 C-72.91 41.78 -72.11 40.13 -70.64 36.48 C-69.16 33.77 -67.39 32.91 -64.62 31.62 C-54.21 25.61 -48.4 15.54 -42.28 5.54 C-38.99 0.28 -36.62 -3.3 -30.38 -4.98 C-20.54 -6.39 -9.44 -2.56 0 0 Z " fill="#7700BE" transform="translate(1001.625,305.375)"/>
<path d="M0 0 C1.65 0 3.3 0 5 0 C5.29 0.89 5.58 1.78 5.88 2.7 C15.38 35.72 15.38 35.72 38.86 58.94 C50.09 64.51 62.36 68.25 74.26 72.09 C77 73 77 73 79 74 C78.9 76.34 78.9 76.34 78 79 C75.28 80.45 75.28 80.45 71.65 81.61 C71 81.83 70.35 82.04 69.69 82.27 C68.31 82.73 66.92 83.18 65.53 83.62 C61.95 84.77 58.39 85.99 54.84 87.21 C54.15 87.45 53.46 87.69 52.74 87.94 C37.6 93.22 26.37 100.27 19 114.88 C14.16 125.17 10.76 136.2 7.6 147.1 C6.73 150.03 6.2 151.8 4 154 C2.03 154.05 2.03 154.05 0 153 C-1.07 150.67 -1.84 148.58 -2.55 146.14 C-2.77 145.44 -2.99 144.74 -3.22 144.02 C-3.94 141.77 -4.63 139.51 -5.31 137.25 C-10.44 120.47 -15.7 104.15 -31.78 95.06 C-43.7 88.75 -57.02 84.81 -69.86 80.79 C-72 80 -72 80 -75 78 C-74 75 -74 75 -71.31 73.44 C-68.24 72.1 -65.23 71.01 -62.04 70.02 C-32.71 60.96 -32.71 60.96 -13.42 38.4 C-7.4 26.27 -3.63 13.02 0 0 Z " fill="#6D00B6" transform="translate(848,213)"/>
<path d="M0 0 C7.82 -0.37 14.72 1.05 22.31 2.81 C53.98 9.83 85.45 11.24 117.81 11.62 C120.57 11.66 123.33 11.7 126.09 11.74 C132.73 11.84 139.36 11.92 146 12 C147.14 15.84 148.28 19.68 149.41 23.52 C149.73 24.6 150.05 25.69 150.39 26.8 C153.91 38.78 156.59 51.44 155 64 C153.48 65.89 153.48 65.89 152 67 C151.52 65.97 151.03 64.95 150.53 63.89 C143.8 49.87 136.95 37.27 121.81 31.12 C115.6 29.29 109.53 28.84 103.09 28.8 C102.36 28.79 101.63 28.79 100.88 28.78 C99.34 28.77 97.81 28.76 96.28 28.76 C93.94 28.75 91.61 28.72 89.27 28.69 C87.77 28.68 86.28 28.68 84.78 28.67 C84.09 28.66 83.4 28.65 82.68 28.63 C78.06 28.66 74.77 29.26 71 32 C68.5 37.53 68.92 42.8 69.25 48.7 C70.31 77.97 70.31 77.97 66.32 84.92 C62.07 88.94 57.01 90.6 51.47 92.18 C47.61 93.46 44.64 95.67 41.44 98.12 C40.88 98.53 40.32 98.94 39.74 99.36 C35.17 102.72 30.99 106.46 26.89 110.38 C25 112 25 112 23 112 C22.99 110.57 22.99 110.57 22.98 109.12 C22.92 100.12 22.85 91.11 22.76 82.11 C22.72 77.48 22.68 72.86 22.65 68.23 C22.63 63.76 22.59 59.28 22.54 54.81 C22.52 53.11 22.51 51.41 22.5 49.71 C22.44 35.52 21.66 22.27 12 11 C10.14 9.39 8.24 7.83 6.31 6.31 C1.1 2.21 1.1 2.21 0 0 Z " fill="#8B00CD" transform="translate(399,404)"/>
<path d="M0 0 C1.59 2.31 1.59 2.31 2.94 5.36 C3.44 6.48 3.94 7.59 4.46 8.74 C4.97 9.92 5.48 11.1 6 12.31 C6.51 13.45 7.02 14.58 7.54 15.75 C10.82 23.12 13.93 30.55 17 38 C20 34.45 21.72 30.44 23.54 26.21 C23.87 25.46 24.19 24.71 24.53 23.94 C25.57 21.57 26.6 19.19 27.62 16.81 C28.66 14.42 29.7 12.04 30.74 9.65 C31.39 8.16 32.04 6.68 32.68 5.19 C34.89 0.11 34.89 0.11 36 -1 C38.96 -1.02 41.89 -0.97 44.85 -0.88 C46.18 -0.84 46.18 -0.84 47.53 -0.81 C50.38 -0.73 53.22 -0.65 56.06 -0.56 C57.99 -0.51 59.91 -0.46 61.83 -0.4 C66.55 -0.27 71.28 -0.14 76 0 C74.19 4.23 72.14 5.06 68 7 C65.53 9.04 65.04 9.87 64 13 C63.9 14.68 63.85 16.36 63.84 18.03 C63.83 19.06 63.82 20.08 63.81 21.14 C63.81 22.25 63.8 23.35 63.8 24.49 C63.79 25.63 63.79 26.77 63.78 27.94 C63.77 30.35 63.76 32.76 63.76 35.17 C63.75 38.85 63.72 42.54 63.69 46.22 C63.68 48.56 63.68 50.9 63.67 53.24 C63.65 54.9 63.65 54.9 63.63 56.58 C63.64 57.61 63.64 58.64 63.64 59.71 C63.64 60.61 63.64 61.51 63.63 62.44 C64.08 65.56 65.19 67.45 67 70 C68.82 71.35 68.82 71.35 70.88 72.19 C71.57 72.51 72.27 72.82 72.99 73.15 C76.48 74.62 76.48 74.62 80 76 C79.5 77.49 79.5 77.49 79 79 C61.51 79 44.02 79 26 79 C27.09 74.66 27.96 73.97 31.53 71.54 C35.84 67.03 35.27 60.47 35.2 54.66 C35.19 53.78 35.19 52.91 35.19 52 C35.18 49.21 35.15 46.42 35.12 43.62 C35.11 41.73 35.11 39.83 35.1 37.93 C35.08 33.28 35.04 28.64 35 24 C34.49 25.18 33.97 26.37 33.44 27.59 C31.51 32.03 29.58 36.47 27.64 40.91 C26.81 42.83 25.97 44.74 25.14 46.65 C13.17 74.26 13.17 74.26 8 79 C5 78 5 78 3.96 76.38 C3.65 75.68 3.33 74.98 3.01 74.25 C2.65 73.46 2.29 72.66 1.92 71.84 C1.54 70.97 1.15 70.1 0.76 69.21 C0.36 68.31 -0.04 67.41 -0.46 66.49 C-1.75 63.6 -3.03 60.71 -4.31 57.81 C-5.16 55.91 -6.01 54.01 -6.87 52.11 C-11.34 42.11 -15.73 32.09 -20 22 C-20.05 27.55 -20.09 33.1 -20.11 38.65 C-20.12 40.54 -20.13 42.42 -20.15 44.31 C-20.18 47.03 -20.19 49.75 -20.2 52.47 C-20.21 53.72 -20.21 53.72 -20.23 54.99 C-20.24 64.23 -20.24 64.23 -16.05 72.09 C-15.34 72.56 -14.62 73.02 -13.88 73.5 C-13.15 73.98 -12.43 74.47 -11.68 74.97 C-11.13 75.31 -10.57 75.65 -10 76 C-10.5 77.49 -10.5 77.49 -11 79 C-15.5 79.05 -20 79.09 -24.51 79.11 C-26.04 79.12 -27.57 79.13 -29.1 79.15 C-31.3 79.18 -33.51 79.19 -35.71 79.2 C-36.39 79.21 -37.08 79.22 -37.78 79.23 C-41.43 79.23 -42.87 79.09 -46 77 C-42.88 74.4 -39.57 72.75 -35.9 71.06 C-32.56 69.2 -31.22 67.65 -30 64 C-29.89 62.36 -29.84 60.72 -29.82 59.07 C-29.81 58.07 -29.8 57.07 -29.78 56.04 C-29.78 54.96 -29.77 53.88 -29.76 52.76 C-29.75 51.65 -29.75 50.53 -29.74 49.39 C-29.72 47.03 -29.71 44.67 -29.7 42.31 C-29.69 38.71 -29.64 35.11 -29.6 31.51 C-29.59 29.22 -29.58 26.93 -29.57 24.64 C-29.56 23.56 -29.54 22.49 -29.52 21.38 C-29.54 15.27 -29.87 11.63 -34 7 C-36.06 5.49 -36.06 5.49 -38.25 4.62 C-38.96 4.31 -39.66 3.99 -40.39 3.66 C-40.92 3.44 -41.45 3.23 -42 3 C-42 2.01 -42 1.02 -42 0 C-36.82 -0.17 -31.64 -0.33 -26.47 -0.48 C-24.71 -0.54 -22.95 -0.59 -21.19 -0.65 C-18.65 -0.73 -16.12 -0.81 -13.58 -0.88 C-12.41 -0.92 -12.41 -0.92 -11.21 -0.96 C-3.01 -1.18 -3.01 -1.18 0 0 Z " fill="#BB01F2" transform="translate(580,652)"/>
<path d="M0 0 C7.74 -0.1 15.47 -0.17 23.21 -0.22 C25.84 -0.24 28.47 -0.27 31.09 -0.3 C34.89 -0.35 38.68 -0.37 42.48 -0.39 C43.64 -0.41 44.8 -0.43 45.99 -0.45 C57.82 -0.46 68.79 2.31 78 10 C82.2 14.42 84.08 18.36 84.31 24.44 C84.17 29.98 82.4 33.4 78.75 37.56 C67.05 47.94 55.28 49.29 40 49 C40.06 51.54 40.15 54.08 40.25 56.62 C40.26 57.34 40.28 58.05 40.29 58.79 C40.53 63.89 41.58 67 45 71 C47.22 72.49 47.22 72.49 49.62 73.31 C50.4 73.62 51.18 73.92 51.98 74.24 C52.64 74.49 53.31 74.74 54 75 C54.99 75.5 54.99 75.5 56 76 C56 76.99 56 77.98 56 79 C36.53 79 17.06 79 -3 79 C-2.67 77.68 -2.34 76.36 -2 75 C0.18 73.84 0.18 73.84 2.88 72.94 C6.32 71.77 8.71 70.89 11 68 C11.98 65.05 12.14 63.06 12.18 59.98 C12.19 58.96 12.2 57.94 12.22 56.89 C12.22 55.78 12.23 54.68 12.24 53.54 C12.25 52.41 12.25 51.27 12.26 50.1 C12.28 47.7 12.29 45.29 12.3 42.89 C12.31 39.21 12.36 35.54 12.4 31.87 C12.41 29.53 12.42 27.19 12.43 24.86 C12.44 23.76 12.46 22.66 12.48 21.53 C12.46 15.37 12.18 11.66 8 7 C5.71 5.28 5.71 5.28 3.25 4.12 C2.45 3.72 1.65 3.31 0.83 2.88 C0.22 2.59 -0.38 2.3 -1 2 C-0.67 1.34 -0.34 0.68 0 0 Z M40 6 C40 17.55 40 29.1 40 41 C46.9 39.85 49.38 37.94 54 33 C56.66 28.8 56.67 23.84 56 19 C54.26 14.19 51.32 10.71 47 8 C44.69 7.34 42.38 6.68 40 6 Z " fill="#BB01F2" transform="translate(722,652)"/>
<path d="M0 0 C9.24 0 18.48 0 28 0 C33.68 12.16 39.3 24.34 44.66 36.64 C45.06 37.56 45.46 38.47 45.87 39.42 C47.88 44.01 49.87 48.61 51.85 53.21 C52.6 54.93 53.35 56.64 54.09 58.36 C54.43 59.14 54.76 59.93 55.11 60.73 C58.65 69.15 58.65 69.15 65.5 74.75 C66.65 75.16 67.81 75.58 69 76 C70.34 76.65 71.68 77.31 73 78 C73 78.99 73 79.98 73 81 C55.51 81 38.02 81 20 81 C20.5 79.02 20.5 79.02 21 77 C23.03 76.06 25.02 75.62 27.19 75.1 C27.79 74.74 28.38 74.37 29 74 C30.75 66.8 30.75 66.8 25 56 C14.44 56 3.88 56 -7 56 C-12.32 66.6 -12.32 66.6 -12 73 C-8.7 74.65 -5.4 76.3 -2 78 C-2.5 79.49 -2.5 79.49 -3 81 C-14.55 81 -26.1 81 -38 81 C-37 77 -37 77 -35 75.73 C-34.2 75.41 -33.39 75.08 -32.56 74.75 C-31.36 74.25 -31.36 74.25 -30.13 73.73 C-28 73 -28 73 -26 73 C-25.72 72.28 -25.43 71.56 -25.14 70.81 C-24.07 68.17 -22.92 65.6 -21.71 63.02 C-19.37 58.01 -17.06 53 -14.75 47.97 C-13.16 44.5 -11.55 41.04 -9.92 37.58 C-8.12 33.78 -6.36 29.96 -4.6 26.13 C-3.91 24.63 -3.21 23.14 -2.5 21.65 C-1.5 19.55 -0.53 17.43 0.43 15.3 C0.89 14.37 0.89 14.37 1.36 13.43 C3.93 7.58 2.58 6.89 0 0 Z M8 20 C6.16 23.93 4.33 27.87 2.5 31.81 C1.98 32.93 1.45 34.05 0.91 35.21 C0.41 36.28 -0.08 37.35 -0.59 38.46 C-1.05 39.45 -1.52 40.44 -1.99 41.46 C-3.18 44.01 -3.18 44.01 -3 47 C4.92 47 12.84 47 21 47 C19.12 41.36 16.93 36.09 14.5 30.69 C13.89 29.31 13.89 29.31 13.28 27.9 C12.89 27.03 12.5 26.16 12.09 25.26 C11.74 24.47 11.39 23.67 11.02 22.85 C10.14 20.83 10.14 20.83 8 20 Z " fill="#BC01F3" transform="translate(906,650)"/>
<path d="M0 0 C29.7 0 59.4 0 90 0 C90 22 90 22 89 25 C84.43 23.22 83.5 20.46 81.54 16.19 C79.42 13.18 77.39 12.41 74 11 C71.31 10.64 68.81 10.4 66.12 10.31 C65.44 10.28 64.75 10.24 64.04 10.21 C62.36 10.13 60.68 10.06 59 10 C58.95 17.13 58.91 24.27 58.89 31.41 C58.88 33.83 58.87 36.26 58.85 38.68 C58.82 42.17 58.81 45.67 58.8 49.16 C58.79 50.24 58.78 51.32 58.77 52.43 C58.77 61.78 58.77 61.78 62.5 70.19 C65.72 72.53 69.1 73.69 72.86 74.97 C73.56 75.31 74.27 75.65 75 76 C75.33 76.99 75.66 77.98 76 79 C55.87 79 35.74 79 15 79 C17.13 74.74 17.29 74.52 21.38 73 C25.01 71.5 27.58 70.22 30 67 C31.01 63.88 31.15 60.95 31.21 57.68 C31.23 56.62 31.25 55.56 31.27 54.47 C31.28 53.33 31.3 52.19 31.32 51.02 C31.34 49.84 31.36 48.67 31.38 47.47 C31.44 43.73 31.5 39.99 31.56 36.25 C31.61 33.71 31.65 31.18 31.69 28.64 C31.8 22.43 31.9 16.21 32 10 C29.46 10.09 26.92 10.19 24.38 10.31 C23.66 10.34 22.95 10.36 22.21 10.38 C17.49 10.62 14.11 11.44 10 14 C8.18 16.44 8.18 16.44 6.88 19.19 C5.49 21.92 5.49 21.92 4 24 C2.68 24 1.36 24 0 24 C0 16.08 0 8.16 0 0 Z " fill="#BA01F1" transform="translate(1195,652)"/>
<path d="M0 0 C1.32 -0 1.32 -0 2.67 -0 C8.8 0.1 13.71 1.17 19.42 3.48 C24.59 5.11 29.89 4.69 35.25 4.38 C39.29 21.35 39.29 21.35 35.25 28.38 C34.69 27.57 34.14 26.76 33.56 25.93 C28.33 18.6 23.5 12.22 14.25 10.38 C6.56 9.43 0.58 10.86 -5.75 15.38 C-8.23 17.82 -10.03 20.36 -11.75 23.38 C-12.09 23.96 -12.43 24.54 -12.78 25.14 C-16.14 32.27 -15.96 41.6 -14.06 49.1 C-10.77 57.13 -5.51 62.64 2.25 66.38 C9.71 68.75 19.03 68.55 26.04 65 C30.02 62.08 33.11 58.38 36.28 54.64 C36.93 53.89 37.58 53.15 38.25 52.38 C38.58 52.38 38.91 52.38 39.25 52.38 C40.09 57.83 38.15 60.86 35.08 65.13 C28.52 73.18 20.57 77.83 10.25 79.38 C-6.14 80.49 -19.4 78.71 -32.75 68.38 C-40.33 61.35 -45.05 52.53 -45.94 42.19 C-46.26 30.6 -42.45 21.32 -34.69 12.69 C-24.99 3.6 -12.96 -0.02 0 0 Z " fill="#BB01F2" transform="translate(1086.75,651.625)"/>
<path d="M0 0 C19.8 0 39.6 0 60 0 C59.67 0.99 59.34 1.98 59 3 C56.86 4.03 56.86 4.03 54.19 4.94 C50.29 6.4 47.55 7.57 45 11 C44.02 13.93 43.86 15.87 43.82 18.93 C43.81 19.93 43.8 20.93 43.78 21.96 C43.78 23.04 43.77 24.12 43.76 25.24 C43.75 26.35 43.75 27.47 43.74 28.61 C43.72 30.97 43.71 33.33 43.7 35.69 C43.69 39.29 43.64 42.89 43.6 46.49 C43.59 48.78 43.58 51.07 43.57 53.36 C43.56 54.44 43.54 55.51 43.52 56.62 C43.54 62.72 43.83 66.41 48 71 C50.98 72.76 50.98 72.76 54.25 73.88 C55.33 74.28 56.41 74.69 57.52 75.12 C58.34 75.41 59.16 75.7 60 76 C59.5 77.49 59.5 77.49 59 79 C39.53 79 20.06 79 0 79 C0.33 77.68 0.66 76.36 1 75 C3.42 73.77 5.87 73.04 8.46 72.22 C11.92 70.56 13.02 69.35 15 66 C15.59 62.03 15.54 58.1 15.5 54.09 C15.5 52.94 15.5 51.78 15.5 50.59 C15.5 48.14 15.49 45.7 15.47 43.25 C15.44 39.51 15.45 35.78 15.46 32.04 C15.45 29.66 15.44 27.28 15.43 24.91 C15.44 23.79 15.44 22.67 15.44 21.52 C15.43 20.47 15.42 19.43 15.4 18.35 C15.4 17.44 15.39 16.52 15.39 15.58 C14.92 12.44 13.86 10.56 12 8 C9.35 6.45 9.35 6.45 6.38 5.38 C3.4 4.21 3.4 4.21 1 3 C0.67 2.01 0.34 1.02 0 0 Z " fill="#BB01F2" transform="translate(416,652)"/>
<path d="M0 0 C0.74 -0.01 1.48 -0.02 2.24 -0.02 C8.99 -0 14.62 1.1 21.5 2.25 C21.5 16.44 21.5 30.63 21.5 45.25 C18.22 44.96 14.94 44.67 11.56 44.38 C-4.11 43.03 -19.8 42.15 -35.5 41.25 C-34.71 35.78 -33.85 33.99 -29.6 30.62 C-26.74 28.76 -23.74 27.54 -20.59 26.25 C-16.94 24.5 -14.3 21.85 -12.5 18.25 C-12.43 15.53 -12.41 12.84 -12.44 10.12 C-12.44 9.37 -12.45 8.62 -12.45 7.84 C-12.46 5.98 -12.48 4.11 -12.5 2.25 C-8.61 -0.35 -4.5 -0.05 0 0 Z " fill="#9600D6" transform="translate(1163.5,478.75)"/>
<path d="M0 0 C24.08 13.76 41.38 35.12 53 60 C52.01 60.5 52.01 60.5 51 61 C48.78 59.8 46.69 58.54 44.56 57.19 C30.28 48.37 15.61 41.14 0 35 C0 23.45 0 11.9 0 0 Z " fill="#9C00DB" transform="translate(1241,504)"/>
</svg>
