<?xml version="1.0" encoding="UTF-8"?>
<!-- Generator: https://ezgif.com/png-to-svg -->
<svg version="1.1" xmlns="http://www.w3.org/2000/svg" width="523" height="501">
<path d="M0 0 C2.35 -0 4.71 -0.01 7.06 -0.02 C13.39 -0.03 19.71 -0.02 26.04 -0.01 C32.02 -0.01 38 -0.01 43.99 -0.02 C56.56 -0.03 69.13 -0.02 81.7 -0 C92.44 0.01 103.17 0.01 113.91 -0 C126.44 -0.02 138.97 -0.03 151.51 -0.02 C158.12 -0.01 164.73 -0.01 171.34 -0.02 C177.56 -0.03 183.78 -0.02 189.99 -0.01 C192.26 -0 194.52 -0 196.79 -0.01 C228.4 -0.09 258.58 4.38 282.73 26.39 C283.44 27.01 284.14 27.64 284.87 28.28 C304.27 46.42 312.67 73.06 313.85 98.97 C314.04 106.01 314.02 113.05 314.01 120.09 C314.01 122.44 314.02 124.79 314.02 127.14 C314.04 133.49 314.04 139.84 314.04 146.19 C314.03 152.18 314.04 158.18 314.05 164.17 C314.06 176.78 314.06 189.38 314.05 201.98 C314.04 213.47 314.06 224.95 314.07 236.43 C314.09 248.27 314.1 260.12 314.1 271.96 C314.1 278.58 314.1 285.21 314.11 291.84 C314.13 298.08 314.12 304.32 314.11 310.56 C314.11 312.83 314.11 315.1 314.12 317.38 C314.24 352.27 308.28 382.34 283.27 407.91 C258.44 431.53 226.14 434.87 193.58 434.78 C191.23 434.78 188.89 434.79 186.55 434.79 C180.26 434.81 173.96 434.8 167.66 434.79 C161.71 434.78 155.76 434.79 149.8 434.79 C137.29 434.8 124.77 434.79 112.26 434.78 C101.58 434.76 90.89 434.77 80.21 434.78 C67.73 434.8 55.26 434.8 42.79 434.79 C36.21 434.79 29.63 434.79 23.05 434.8 C16.86 434.81 10.67 434.8 4.48 434.78 C2.23 434.78 -0.03 434.78 -2.28 434.79 C-34.26 434.87 -64.8 430.66 -89.27 408.39 C-89.9 407.83 -90.53 407.26 -91.18 406.69 C-110.69 388.33 -119.21 362.03 -120.38 335.82 C-120.57 328.77 -120.55 321.72 -120.54 314.67 C-120.54 312.32 -120.55 309.97 -120.56 307.61 C-120.57 301.26 -120.57 294.91 -120.57 288.56 C-120.57 282.56 -120.57 276.56 -120.58 270.56 C-120.59 257.95 -120.59 245.35 -120.58 232.74 C-120.58 221.25 -120.59 209.76 -120.61 198.27 C-120.62 186.42 -120.63 174.57 -120.63 162.73 C-120.63 156.09 -120.63 149.46 -120.64 142.83 C-120.66 136.59 -120.65 130.35 -120.64 124.11 C-120.64 121.83 -120.64 119.56 -120.65 117.28 C-120.77 83.36 -114.82 52.71 -90.77 27.51 C-65.65 3.49 -33.17 -0.1 0 0 Z " fill="#9045FE" transform="translate(175.265625,28.61181640625)"/>
<path d="M0 0 C11.95 0.59 23.91 0.87 35.87 1.13 C60.4 1.67 84.89 2.58 109.4 3.75 C112.23 26.77 114.14 49.82 115.15 73 C115.18 73.85 115.22 74.7 115.26 75.58 C117.12 120.52 114.72 158.14 83.18 192.42 C78.22 197.69 73 202.67 67.7 207.6 C66.15 209.05 64.62 210.52 63.08 212 C26.5 247.15 26.5 247.15 2.71 247.23 C-1.05 247.13 -4.79 246.89 -8.54 246.6 C-20.17 245.7 -27.88 245.86 -37.18 253.48 C-43.69 259.24 -49.44 265.71 -55.06 272.31 C-57.99 275.7 -61.06 278.96 -64.11 282.24 C-69.41 287.96 -74.59 293.77 -79.69 299.66 C-80.32 300.35 -80.95 301.04 -81.6 301.75 C-81.93 301.75 -82.26 301.75 -82.6 301.75 C-82.6 283.27 -82.6 264.79 -82.6 245.75 C-103.72 245.75 -124.84 245.75 -146.6 245.75 C-147.79 221.87 -148.74 198.02 -149.3 174.12 C-149.56 163.02 -149.92 151.94 -150.53 140.85 C-155.06 55.28 -155.06 55.28 -130.14 27.12 C-96.84 -8.56 -44.59 -2.25 0 0 Z " fill="#000000" transform="translate(290.6033389568329,114.25452256202698)"/>
<path d="M0 0 C56.43 0 112.86 0 171 0 C172.21 28 172.21 28 173.44 56.56 C173.79 62.37 174.15 68.17 174.51 74.15 C175.37 98.23 174.96 117.68 157.93 136.14 C156.21 137.88 154.46 139.61 152.7 141.33 C151.87 142.16 151.03 142.98 150.17 143.84 C141.24 152.38 133.26 158.28 120.55 158.13 C117.11 157.96 113.72 157.62 110.31 157.19 C108.27 156.99 106.23 156.8 104.18 156.61 C102.97 156.49 102.97 156.49 101.73 156.37 C92.06 155.8 85.92 158.58 78.62 164.84 C66.58 175.63 55.81 187.92 45.49 200.34 C45 200.89 44.51 201.43 44 202 C43.67 202 43.34 202 43 202 C43 187.15 43 172.3 43 157 C28.81 157 14.62 157 0 157 C0 105.19 0 53.38 0 0 Z " fill="#FEFEFE" transform="translate(208,139)"/>
<path d="M0 0 C2.35 -0 4.71 -0.01 7.06 -0.02 C13.39 -0.03 19.71 -0.02 26.04 -0.01 C32.02 -0.01 38 -0.01 43.99 -0.02 C56.56 -0.03 69.13 -0.02 81.7 -0 C92.44 0.01 103.17 0.01 113.91 -0 C126.44 -0.02 138.97 -0.03 151.51 -0.02 C158.12 -0.01 164.73 -0.01 171.34 -0.02 C177.56 -0.03 183.78 -0.02 189.99 -0.01 C192.26 -0 194.52 -0 196.79 -0.01 C228.4 -0.09 258.58 4.38 282.73 26.39 C283.44 27.01 284.14 27.64 284.87 28.28 C304.27 46.42 312.67 73.06 313.85 98.97 C314.04 106.01 314.02 113.05 314.01 120.09 C314.01 122.44 314.02 124.79 314.02 127.14 C314.04 133.49 314.04 139.84 314.04 146.19 C314.03 152.18 314.04 158.18 314.05 164.17 C314.06 176.78 314.06 189.38 314.05 201.98 C314.04 213.47 314.06 224.95 314.07 236.43 C314.09 248.27 314.1 260.12 314.1 271.96 C314.1 278.58 314.1 285.21 314.11 291.84 C314.13 298.08 314.12 304.32 314.11 310.56 C314.11 312.83 314.11 315.1 314.12 317.38 C314.24 352.27 308.28 382.34 283.27 407.91 C258.44 431.53 226.14 434.87 193.58 434.78 C191.23 434.78 188.89 434.79 186.55 434.79 C180.26 434.81 173.96 434.8 167.66 434.79 C161.71 434.78 155.76 434.79 149.8 434.79 C137.29 434.8 124.77 434.79 112.26 434.78 C101.58 434.76 90.89 434.77 80.21 434.78 C67.73 434.8 55.26 434.8 42.79 434.79 C36.21 434.79 29.63 434.79 23.05 434.8 C16.86 434.81 10.67 434.8 4.48 434.78 C2.23 434.78 -0.03 434.78 -2.28 434.79 C-34.26 434.87 -64.8 430.66 -89.27 408.39 C-89.9 407.83 -90.53 407.26 -91.18 406.69 C-110.69 388.33 -119.21 362.03 -120.38 335.82 C-120.57 328.77 -120.55 321.72 -120.54 314.67 C-120.54 312.32 -120.55 309.97 -120.56 307.61 C-120.57 301.26 -120.57 294.91 -120.57 288.56 C-120.57 282.56 -120.57 276.56 -120.58 270.56 C-120.59 257.95 -120.59 245.35 -120.58 232.74 C-120.58 221.25 -120.59 209.76 -120.61 198.27 C-120.62 186.42 -120.63 174.57 -120.63 162.73 C-120.63 156.09 -120.63 149.46 -120.64 142.83 C-120.66 136.59 -120.65 130.35 -120.64 124.11 C-120.64 121.83 -120.64 119.56 -120.65 117.28 C-120.77 83.36 -114.82 52.71 -90.77 27.51 C-65.65 3.49 -33.17 -0.1 0 0 Z M-41.27 5.39 C-42.43 5.58 -43.6 5.76 -44.8 5.96 C-56.68 8.09 -68.56 13.12 -78.27 20.39 C-78.27 21.05 -78.27 21.71 -78.27 22.39 C-78.83 22.47 -79.38 22.55 -79.96 22.63 C-87.2 25.01 -93.75 33.44 -98.27 39.39 C-98.27 40.38 -98.27 41.37 -98.27 42.39 C-99.75 42.88 -99.75 42.88 -101.27 43.39 C-102.46 44.92 -102.46 44.92 -103.42 46.85 C-103.99 47.92 -103.99 47.92 -104.58 49.01 C-104.97 49.78 -105.36 50.54 -105.77 51.33 C-106.17 52.1 -106.57 52.88 -106.99 53.68 C-109.77 59.14 -111.86 64.42 -113.27 70.39 C-113.81 72.24 -114.35 74.1 -114.89 75.95 C-117.27 84.16 -117.41 92.53 -117.4 101.02 C-117.4 102.05 -117.4 103.09 -117.41 104.16 C-117.41 107.61 -117.41 111.05 -117.41 114.5 C-117.41 116.99 -117.42 119.47 -117.42 121.95 C-117.43 127.98 -117.43 134.01 -117.43 140.04 C-117.43 144.94 -117.44 149.85 -117.44 154.75 C-117.45 168.68 -117.45 182.61 -117.45 196.55 C-117.45 197.3 -117.45 198.05 -117.45 198.82 C-117.45 199.57 -117.45 200.32 -117.45 201.09 C-117.45 213.25 -117.46 225.41 -117.47 237.57 C-117.49 250.08 -117.5 262.59 -117.49 275.1 C-117.49 282.12 -117.5 289.13 -117.51 296.14 C-117.52 302.74 -117.52 309.34 -117.51 315.94 C-117.51 318.36 -117.51 320.77 -117.52 323.19 C-117.57 347.51 -115.11 370.53 -101.27 391.39 C-100.28 391.72 -99.29 392.05 -98.27 392.39 C-98.08 393.23 -98.08 393.23 -97.89 394.09 C-96.96 397.51 -94.64 399.68 -92.27 402.2 C-91.77 402.73 -91.27 403.27 -90.75 403.82 C-73.59 421.81 -49.21 430.75 -24.63 431.66 C-18.15 431.81 -11.67 431.79 -5.19 431.78 C-2.72 431.78 -0.24 431.79 2.24 431.79 C8.22 431.8 14.2 431.8 20.19 431.79 C25.06 431.79 29.93 431.79 34.8 431.79 C35.49 431.79 36.19 431.79 36.91 431.79 C38.33 431.79 39.74 431.79 41.16 431.79 C54.4 431.8 67.64 431.79 80.88 431.78 C92.2 431.76 103.52 431.77 114.84 431.78 C128.04 431.8 141.24 431.8 154.44 431.79 C155.85 431.79 157.26 431.79 158.67 431.79 C159.37 431.79 160.06 431.79 160.78 431.79 C165.63 431.79 170.49 431.79 175.34 431.8 C181.9 431.81 188.45 431.8 195 431.78 C197.39 431.78 199.79 431.78 202.18 431.79 C233.41 431.87 261.57 426.16 284.55 403.62 C302.71 384.22 310.91 360.07 310.87 333.76 C310.87 332.72 310.87 331.69 310.87 330.62 C310.88 327.17 310.88 323.72 310.88 320.27 C310.88 317.79 310.89 315.31 310.89 312.83 C310.9 306.8 310.9 300.77 310.9 294.74 C310.9 289.84 310.9 284.93 310.91 280.03 C310.92 266.09 310.92 252.16 310.92 238.23 C310.92 237.48 310.92 236.73 310.92 235.96 C310.92 235.21 310.92 234.46 310.92 233.68 C310.92 221.52 310.93 209.36 310.94 197.2 C310.96 184.69 310.96 172.18 310.96 159.67 C310.96 152.66 310.97 145.65 310.98 138.63 C310.99 132.03 310.99 125.43 310.98 118.83 C310.98 116.42 310.98 114 310.99 111.59 C311.04 86.59 308.7 63.34 293.73 42.39 C293.07 42.39 292.41 42.39 291.73 42.39 C291.61 41.54 291.61 41.54 291.48 40.68 C288.07 30.16 274.15 20.99 264.76 16.12 C261.45 14.47 258.11 12.91 254.73 11.39 C253.3 10.74 253.3 10.74 251.84 10.07 C247.12 8.06 242.49 6.72 237.43 5.86 C235.69 5.55 233.95 5.23 232.22 4.87 C225.69 3.57 219.49 3.1 212.84 3.13 C211.8 3.13 210.77 3.13 209.69 3.12 C206.24 3.12 202.79 3.12 199.34 3.13 C196.86 3.13 194.37 3.12 191.89 3.12 C185.85 3.11 179.82 3.11 173.78 3.12 C168.88 3.12 163.97 3.12 159.06 3.12 C158.01 3.12 158.01 3.12 156.94 3.12 C155.52 3.12 154.1 3.12 152.67 3.12 C139.35 3.11 126.03 3.12 112.71 3.13 C101.3 3.14 89.89 3.14 78.48 3.13 C65.21 3.12 51.93 3.11 38.66 3.12 C37.24 3.12 35.82 3.12 34.4 3.12 C33.71 3.12 33.01 3.12 32.29 3.12 C27.39 3.12 22.5 3.12 17.6 3.12 C11 3.11 4.4 3.11 -2.2 3.13 C-4.61 3.13 -7.03 3.13 -9.45 3.12 C-12.76 3.12 -16.07 3.12 -19.37 3.13 C-20.8 3.13 -20.8 3.13 -22.25 3.12 C-28.78 3.16 -34.88 4.08 -41.27 5.39 Z " fill="#D5D4D2" transform="translate(175.265625,28.61181640625)"/>
<path d="M0 0 C7.26 0 14.52 0 22 0 C22 21.12 22 42.24 22 64 C14.74 64 7.48 64 0 64 C0 42.88 0 21.76 0 0 Z " fill="#040404" transform="translate(325,182)"/>
<path d="M0 0 C6.93 0 13.86 0 21 0 C21 21.12 21 42.24 21 64 C14.07 64 7.14 64 0 64 C0 42.88 0 21.76 0 0 Z " fill="#000000" transform="translate(272,182)"/>
<path d="M0 0 C0 3 0 3 -1.51 4.81 C-2.21 5.46 -2.9 6.12 -3.61 6.8 C-4.74 7.9 -4.74 7.9 -5.9 9.01 C-7.5 10.53 -9.09 12.06 -10.69 13.58 C-14.72 17.48 -17.95 20.73 -20 26 C-21.65 26 -23.3 26 -25 26 C-20.04 20 -14.65 14.54 -9.12 9.06 C-8.25 8.19 -7.37 7.31 -6.46 6.41 C-4.31 4.27 -2.16 2.14 0 0 Z " fill="#8740D9" transform="translate(252,372)"/>
<path d="M0 0 C0.98 0.02 1.97 0.04 2.98 0.05 C4.11 0.09 4.11 0.09 5.25 0.12 C5.25 0.79 5.25 1.44 5.25 2.12 C0.21 3.64 -4.63 2.77 -9.75 2.12 C-6.4 0.1 -3.88 -0.09 0 0 Z " fill="#D8D8D3" transform="translate(151.75,459.875)"/>
<path d="M0 0 C0.33 0.66 0.66 1.32 1 2 C-1.31 2 -3.62 2 -6 2 C-6 2.66 -6 3.32 -6 4 C-9.3 3.67 -12.6 3.34 -16 3 C-16 2.67 -16 2.34 -16 2 C-10.72 1.34 -5.44 0.68 0 0 Z " fill="#BEBEC0" transform="translate(151,29)"/>
<path d="M0 0 C5.75 1.75 5.75 1.75 8 4 C8 4.66 8 5.32 8 6 C4.63 4.56 2.49 2.67 0 0 Z " fill="#D4D4D4" transform="translate(88,438)"/>
</svg>
