<?xml version="1.0" encoding="UTF-8"?>
<!-- Generator: https://ezgif.com/png-to-svg -->
<svg version="1.1" xmlns="http://www.w3.org/2000/svg" width="933" height="617">
<path d="M0 0 C2.62 0.2 3.8 0.82 5.75 2.57 C10.17 7.73 14.41 13 18.58 18.35 C22.16 22.95 25.81 27.49 29.5 32 C34.01 37.52 38.45 43.09 42.84 48.71 C46.34 53.18 49.91 57.6 53.5 62 C58.01 67.52 62.45 73.09 66.84 78.71 C70.34 83.18 73.91 87.6 77.5 92 C82.01 97.52 86.45 103.09 90.84 108.71 C94.34 113.18 97.91 117.6 101.5 122 C106.01 127.52 110.45 133.09 114.84 138.71 C118.34 143.18 121.91 147.6 125.5 152 C130.01 157.52 134.45 163.09 138.84 168.71 C142.34 173.18 145.91 177.6 149.5 182 C154.01 187.52 158.45 193.09 162.84 198.71 C166.34 203.18 169.91 207.6 173.5 212 C178.01 217.52 182.45 223.09 186.84 228.71 C190.34 233.18 193.91 237.6 197.5 242 C202.01 247.52 206.45 253.09 210.84 258.71 C214.34 263.18 217.91 267.6 221.5 272 C226.01 277.52 230.45 283.09 234.84 288.71 C238.34 293.18 241.91 297.6 245.5 302 C250.01 307.52 254.45 313.09 258.84 318.71 C262.34 323.18 265.91 327.6 269.5 332 C273.55 336.96 277.56 341.95 281.5 347 C286.63 353.57 291.88 360.04 297.15 366.5 C297.64 367.1 298.13 367.71 298.63 368.32 C299.86 369.83 301.11 371.31 302.36 372.79 C304.3 375.41 304.36 376.81 304 380 C301.33 381.34 299.29 381.13 296.3 381.14 C295.08 381.15 293.87 381.15 292.62 381.16 C291.26 381.16 289.91 381.16 288.56 381.16 C287.14 381.17 285.72 381.17 284.3 381.18 C280.44 381.19 276.58 381.2 272.72 381.2 C270.3 381.2 267.89 381.21 265.48 381.21 C257.93 381.23 250.38 381.24 242.83 381.24 C234.12 381.24 225.41 381.26 216.69 381.29 C209.96 381.31 203.23 381.32 196.49 381.32 C192.47 381.32 188.45 381.33 184.43 381.35 C180.64 381.36 176.86 381.37 173.07 381.36 C171.68 381.36 170.3 381.36 168.91 381.37 C167.01 381.38 165.11 381.38 163.21 381.37 C162.15 381.37 161.09 381.37 160 381.37 C149.15 380.03 142.99 369.35 136.75 361.38 C135.82 360.17 134.89 358.97 133.95 357.77 C130.86 353.8 127.69 349.9 124.5 346 C119.99 340.48 115.55 334.91 111.16 329.29 C107.66 324.82 104.09 320.4 100.5 316 C95.99 310.48 91.55 304.91 87.16 299.29 C83.66 294.82 80.09 290.4 76.5 286 C71.99 280.48 67.55 274.91 63.16 269.29 C59.66 264.82 56.09 260.4 52.5 256 C47.99 250.48 43.55 244.91 39.16 239.29 C35.66 234.82 32.09 230.4 28.5 226 C23.5 219.87 18.58 213.7 13.71 207.46 C11.81 205.02 9.88 202.6 7.94 200.19 C7.44 199.56 6.94 198.93 6.42 198.29 C5.46 197.09 4.5 195.89 3.53 194.7 C-1.01 189.01 -2.3 184.67 -2.25 177.46 C-2.26 176.71 -2.26 175.96 -2.26 175.19 C-2.27 172.68 -2.27 170.17 -2.26 167.67 C-2.26 165.86 -2.27 164.06 -2.27 162.26 C-2.28 157.38 -2.27 152.49 -2.27 147.61 C-2.26 142.5 -2.27 137.39 -2.27 132.28 C-2.28 123.7 -2.27 115.12 -2.26 106.55 C-2.25 96.62 -2.25 86.69 -2.26 76.77 C-2.27 68.25 -2.27 59.73 -2.27 51.22 C-2.27 46.13 -2.27 41.04 -2.27 35.95 C-2.28 31.17 -2.27 26.39 -2.26 21.61 C-2.26 19.85 -2.26 18.09 -2.27 16.33 C-2.27 13.94 -2.26 11.55 -2.25 9.15 C-2.26 8.45 -2.26 7.75 -2.27 7.02 C-2.23 2.23 -2.23 2.23 0 0 Z " fill="#FF4655" transform="translate(223,1)"/>
<path d="M0 0 C1.65 0.33 3.3 0.66 5 1 C5.07 25.02 5.12 49.03 5.16 73.05 C5.17 84.2 5.19 95.36 5.23 106.51 C5.26 116.23 5.28 125.95 5.28 135.66 C5.29 140.81 5.3 145.96 5.32 151.1 C5.34 155.95 5.34 160.79 5.34 165.64 C5.34 167.41 5.35 169.19 5.36 170.97 C5.37 173.4 5.37 175.83 5.36 178.26 C5.37 178.96 5.38 179.66 5.39 180.38 C5.33 186.69 3.03 191.09 -0.97 195.81 C-1.53 196.49 -2.1 197.16 -2.68 197.86 C-3.58 198.92 -3.58 198.92 -4.5 200 C-5.77 201.52 -7.04 203.04 -8.31 204.56 C-8.94 205.31 -9.56 206.06 -10.21 206.84 C-12.72 209.87 -15.15 212.96 -17.56 216.06 C-22.09 221.87 -26.7 227.6 -31.36 233.29 C-35.06 237.83 -38.68 242.41 -42.22 247.08 C-45.08 250.16 -47.71 251.84 -51.93 252.37 C-53.01 252.37 -54.1 252.36 -55.22 252.36 C-57.1 252.37 -57.1 252.37 -59.01 252.37 C-60.39 252.36 -61.77 252.35 -63.15 252.34 C-64.61 252.34 -66.07 252.34 -67.53 252.34 C-71.48 252.34 -75.44 252.33 -79.39 252.3 C-83.53 252.29 -87.66 252.28 -91.8 252.28 C-99.62 252.27 -107.45 252.25 -115.28 252.22 C-124.19 252.18 -133.1 252.17 -142.01 252.15 C-160.34 252.12 -178.67 252.07 -197 252 C-198.12 247.24 -198.12 247.24 -197 245.09 C-196.22 244.2 -196.22 244.2 -195.42 243.29 C-194.84 242.61 -194.27 241.93 -193.67 241.23 C-193.04 240.51 -192.4 239.8 -191.75 239.06 C-190.44 237.54 -189.14 236.01 -187.83 234.48 C-187.18 233.72 -186.53 232.96 -185.85 232.18 C-183.29 229.17 -180.86 226.07 -178.44 222.94 C-174.52 217.91 -170.53 212.94 -166.5 208 C-162.45 203.04 -158.44 198.05 -154.5 193 C-150.02 187.26 -145.44 181.6 -140.84 175.96 C-137.34 171.68 -133.9 167.36 -130.5 163 C-126.02 157.26 -121.44 151.6 -116.84 145.96 C-113.34 141.68 -109.9 137.36 -106.5 133 C-102.02 127.26 -97.44 121.6 -92.84 115.96 C-89.34 111.68 -85.9 107.36 -82.5 103 C-78.02 97.26 -73.44 91.6 -68.84 85.96 C-65.34 81.68 -61.9 77.36 -58.5 73 C-54.02 67.26 -49.44 61.6 -44.84 55.96 C-41.34 51.68 -37.9 47.36 -34.5 43 C-30.02 37.27 -25.45 31.62 -20.85 25.98 C-16.74 20.93 -12.69 15.83 -8.69 10.69 C-5.86 7.07 -2.96 3.52 0 0 Z " fill="#FF4655" transform="translate(680,1)"/>
<path d="M0 0 C13 9.9 23 24.3 26.53 40.41 C29.06 59.59 26.82 78.78 14.78 94.6 C2.28 110.01 -14.06 119.67 -33.84 121.83 C-51.22 123.18 -68.31 118 -81.78 106.93 C-82.51 106.29 -83.25 105.65 -84 105 C-84.75 104.35 -85.51 103.71 -86.28 103.04 C-96.81 93.33 -105.19 78.09 -106.16 63.6 C-106.53 41.98 -103.22 24.34 -88 8 C-78.4 -1.87 -67.3 -7.68 -54 -11 C-53.23 -11.19 -52.47 -11.38 -51.68 -11.58 C-33.24 -14.46 -15.46 -10.33 0 0 Z M-70.33 23.4 C-80.24 35.34 -83.41 47.63 -82 63 C-79.73 74.9 -72.86 85.02 -63 92 C-52.51 98.38 -41.64 100.76 -29.62 97.88 C-16.84 94.04 -7.8 87.19 -1.29 75.58 C3.9 65.19 4.86 52.89 1.88 41.62 C-0.01 36.33 -2.89 31.66 -6 27 C-6.58 26.11 -7.15 25.23 -7.75 24.31 C-16.56 15.25 -27.06 10.87 -39.62 10.56 C-51.61 10.95 -61.81 14.64 -70.33 23.4 Z " fill="#FF4654" transform="translate(405,495)"/>
<path d="M0 0 C13.15 -0.02 26.3 -0.04 39.45 -0.05 C45.56 -0.06 51.67 -0.06 57.77 -0.08 C63.66 -0.09 69.55 -0.09 75.43 -0.09 C77.69 -0.1 79.94 -0.1 82.19 -0.11 C85.33 -0.11 88.47 -0.11 91.61 -0.11 C93.03 -0.12 93.03 -0.12 94.47 -0.12 C100.89 -0.11 100.89 -0.11 102 1 C105.36 29.46 105.36 29.46 97.91 39.19 C95.62 41.68 93.26 44.03 90.77 46.3 C87.86 49.1 85.49 52.29 83.06 55.5 C82.17 56.64 81.28 57.78 80.39 58.91 C77.55 62.58 74.76 66.27 72 70 C73.29 72.77 74.71 75.05 76.65 77.4 C77.44 78.35 77.44 78.35 78.24 79.33 C78.8 80 79.36 80.68 79.94 81.38 C81.12 82.82 82.31 84.26 83.5 85.71 C84.09 86.43 84.68 87.16 85.29 87.9 C87.73 90.9 90.12 93.95 92.5 97 C97.15 102.95 101.89 108.82 106.67 114.67 C107.69 115.91 108.7 117.16 109.71 118.41 C110.76 119.7 111.82 120.99 112.88 122.27 C114 124 114 124 114 127 C110.02 127.22 106.04 127.39 102.05 127.49 C100.04 127.56 98.02 127.68 96.01 127.79 C86.41 128.01 86.41 128.01 82.46 125.19 C80.41 122.9 78.69 120.57 77 118 C76.1 116.87 75.19 115.74 74.27 114.62 C73.45 113.56 72.63 112.5 71.81 111.44 C67.77 106.24 63.67 101.1 59.5 96 C54.71 90.14 49.99 84.22 45.34 78.25 C43.27 75.53 43.27 75.53 41 73 C40.4 69.4 40.88 68.17 43.02 65.16 C43.94 64.12 44.87 63.09 45.81 62.06 C46.83 60.91 47.85 59.75 48.87 58.59 C49.39 57.99 49.92 57.4 50.46 56.79 C52.86 54 55.12 51.1 57.38 48.19 C62.11 42.1 66.95 36.11 71.85 30.15 C72.38 29.51 72.9 28.87 73.45 28.2 C73.91 27.63 74.38 27.06 74.87 26.47 C76.09 24.98 76.09 24.98 77 23 C59.18 23 41.36 23 23 23 C23 57.32 23 91.64 23 127 C15.41 127 7.82 127 0 127 C-1.24 124.52 -1.13 122.88 -1.13 120.1 C-1.13 119.07 -1.13 118.03 -1.14 116.97 C-1.13 115.83 -1.13 114.69 -1.13 113.51 C-1.13 112.32 -1.13 111.12 -1.13 109.89 C-1.14 106.6 -1.14 103.31 -1.13 100.03 C-1.13 96.59 -1.13 93.15 -1.14 89.72 C-1.14 83.95 -1.14 78.18 -1.13 72.41 C-1.12 65.73 -1.13 59.05 -1.13 52.38 C-1.14 46.65 -1.14 40.92 -1.13 35.2 C-1.13 31.78 -1.13 28.35 -1.14 24.93 C-1.14 21.12 -1.13 17.3 -1.13 13.49 C-1.13 12.35 -1.13 11.21 -1.14 10.03 C-1.13 9 -1.13 7.96 -1.13 6.9 C-1.13 5.99 -1.13 5.09 -1.13 4.16 C-1 2 -1 2 0 0 Z " fill="#FF4555" transform="translate(454,486)"/>
<path d="M0 0 C1 -0.03 2.01 -0.06 3.04 -0.09 C10.43 -0.15 10.43 -0.15 14.14 1.94 C16.63 4.74 19 7.58 21.25 10.56 C22.22 11.82 23.19 13.07 24.16 14.33 C24.66 14.98 25.16 15.63 25.68 16.31 C28.32 19.68 31.04 23 33.75 26.31 C38.26 31.84 42.7 37.4 47.09 43.02 C50.59 47.5 54.16 51.91 57.75 56.31 C64.93 65.12 71.94 74.05 78.91 83.02 C79.54 83.83 80.17 84.63 80.81 85.46 C81.52 86.38 81.52 86.38 82.25 87.31 C82.26 86.24 82.27 85.16 82.28 84.05 C82.38 73.94 82.48 63.83 82.59 53.73 C82.64 48.53 82.7 43.33 82.75 38.13 C82.79 33.12 82.85 28.11 82.9 23.1 C82.92 21.18 82.94 19.26 82.96 17.35 C82.98 14.67 83.01 12 83.04 9.32 C83.05 8.52 83.06 7.72 83.06 6.89 C83.14 1.43 83.14 1.43 84.25 0.31 C85.87 0.21 87.5 0.18 89.12 0.18 C90.11 0.18 91.09 0.18 92.11 0.18 C93.15 0.18 94.18 0.18 95.25 0.19 C96.8 0.18 96.8 0.18 98.39 0.18 C99.38 0.18 100.36 0.18 101.38 0.18 C102.29 0.18 103.2 0.18 104.13 0.18 C106.25 0.31 106.25 0.31 107.25 1.31 C107.35 2.94 107.37 4.58 107.37 6.22 C107.37 7.81 107.37 7.81 107.37 9.43 C107.37 11.19 107.37 11.19 107.36 12.99 C107.36 14.22 107.36 15.45 107.36 16.72 C107.36 20.1 107.36 23.48 107.35 26.86 C107.35 30.39 107.34 33.91 107.34 37.44 C107.34 44.13 107.33 50.82 107.32 57.5 C107.31 65.11 107.31 72.72 107.3 80.33 C107.29 95.99 107.27 111.65 107.25 127.31 C103.35 127.46 99.46 127.55 95.56 127.62 C94.46 127.67 93.36 127.71 92.22 127.75 C83.99 127.88 83.99 127.88 80.08 124.91 C79.48 124.05 78.87 123.19 78.25 122.31 C77.73 121.71 77.2 121.12 76.66 120.5 C76.22 119.94 75.77 119.39 75.3 118.82 C74.79 118.18 74.28 117.55 73.75 116.9 C73.21 116.23 72.68 115.56 72.12 114.88 C71.56 114.17 70.99 113.47 70.4 112.74 C66.36 107.73 62.37 102.67 58.41 97.6 C54.96 93.18 51.43 88.84 47.88 84.5 C43.32 78.94 38.9 73.29 34.56 67.56 C29.31 60.64 23.87 53.94 18.25 47.31 C16.6 45.33 14.95 43.35 13.25 41.31 C12.92 57.48 12.59 73.65 12.25 90.31 C10.93 90.31 9.61 90.31 8.25 90.31 C6.34 88.25 4.71 86.26 3.06 84 C2.17 82.82 1.29 81.63 0.39 80.45 C-0.28 79.52 -0.28 79.52 -0.97 78.57 C-2.74 76.23 -2.74 76.23 -4.99 74.03 C-11.02 67.65 -12.78 63.08 -12.8 54.33 C-12.75 52.98 -12.71 51.63 -12.66 50.27 C-12.65 48.86 -12.64 47.44 -12.63 46.02 C-12.6 42.33 -12.52 38.64 -12.43 34.95 C-12.34 31.17 -12.31 27.39 -12.28 23.61 C-12.21 18.12 -12.13 12.62 -12.01 7.13 C-11.98 6.02 -11.96 4.92 -11.93 3.79 C-11.51 -1.94 -4.52 0.04 0 0 Z " fill="#FF4654" transform="translate(705.75,485.6875)"/>
<path d="M0 0 C4.59 0.11 7.87 0.22 11.93 2.46 C14.23 5.07 15.98 7.74 17.79 10.72 C19.04 12.38 20.34 14 21.64 15.62 C23.06 17.38 24.45 19.16 25.83 20.95 C28.93 24.92 32.1 28.82 35.29 32.72 C39.79 38.24 44.23 43.81 48.62 49.43 C52.12 53.91 55.69 58.32 59.29 62.72 C63.79 68.24 68.23 73.81 72.62 79.43 C76.12 83.91 79.69 88.32 83.29 92.72 C87.9 98.38 92.46 104.07 96.95 109.83 C100.36 114.2 103.86 118.49 107.42 122.73 C108.79 124.72 108.79 124.72 108.79 127.72 C104.82 127.97 100.86 128.15 96.89 128.27 C94.89 128.34 92.89 128.47 90.89 128.6 C81.31 128.84 81.31 128.84 77.02 125.68 C74.71 123.14 72.73 120.55 70.79 117.72 C69.85 116.56 68.91 115.4 67.96 114.24 C67.16 113.21 66.36 112.17 65.54 111.1 C60.79 104.97 55.94 98.95 51.03 92.96 C50.5 92.32 49.98 91.68 49.44 91.02 C48.97 90.46 48.51 89.89 48.03 89.31 C46.88 87.83 45.83 86.28 44.79 84.72 C39.65 90.29 34.87 96.08 30.22 102.05 C26.48 106.85 22.68 111.61 18.85 116.35 C18.31 117.02 17.76 117.7 17.2 118.39 C16.68 119.03 16.17 119.67 15.63 120.32 C15.18 120.88 14.73 121.44 14.26 122.02 C13.77 122.58 13.29 123.14 12.79 123.72 C11.87 124.8 11.87 124.8 10.94 125.91 C8.24 128.18 6.89 128.2 3.4 128.15 C2.38 128.14 1.36 128.13 0.31 128.12 C-1.28 128.08 -1.28 128.08 -2.9 128.03 C-3.97 128.02 -5.04 128.01 -6.15 128 C-14.05 127.89 -14.05 127.89 -15.21 126.72 C-15.31 125.1 -15.34 123.48 -15.34 121.86 C-15.34 120.81 -15.35 119.76 -15.35 118.68 C-15.35 117.51 -15.35 116.35 -15.34 115.15 C-15.35 113.93 -15.35 112.71 -15.35 111.46 C-15.35 108.11 -15.35 104.76 -15.35 101.41 C-15.35 97.91 -15.35 94.42 -15.35 90.92 C-15.35 85.04 -15.35 79.17 -15.34 73.29 C-15.34 66.49 -15.34 59.69 -15.35 52.89 C-15.35 47.06 -15.35 41.23 -15.35 35.4 C-15.35 31.92 -15.35 28.43 -15.35 24.95 C-15.35 21.06 -15.35 17.18 -15.34 13.29 C-15.35 12.13 -15.35 10.97 -15.35 9.77 C-15.35 8.72 -15.34 7.66 -15.34 6.58 C-15.34 5.66 -15.34 4.74 -15.34 3.79 C-14.99 -1.88 -4.27 0.04 0 0 Z M8.79 37.72 C8.79 55.54 8.79 73.36 8.79 91.72 C13.07 87.44 13.07 87.44 16.98 82.91 C17.53 82.23 18.08 81.54 18.65 80.84 C19.21 80.14 19.77 79.44 20.35 78.72 C20.91 78.02 21.48 77.32 22.06 76.6 C24.98 72.98 27.88 69.35 30.79 65.72 C29.52 62.2 28.11 59.58 25.7 56.73 C25.1 56 24.5 55.28 23.88 54.53 C23.25 53.79 22.62 53.05 21.97 52.28 C21.36 51.55 20.74 50.81 20.1 50.05 C18.9 48.61 17.69 47.17 16.48 45.73 C14.93 43.9 13.41 42.04 11.9 40.19 C10.85 38.97 10.85 38.97 9.79 37.72 C9.46 37.72 9.13 37.72 8.79 37.72 Z " fill="#FF4554" transform="translate(603.2138671875,485.27880859375)"/>
<path d="M0 0 C1.45 0.01 1.45 0.01 2.93 0.03 C10.02 0.14 10.02 0.14 11.19 1.31 C11.29 2.93 11.31 4.55 11.31 6.17 C11.32 7.75 11.32 7.75 11.32 9.36 C11.32 11.1 11.32 11.1 11.32 12.88 C11.32 14.71 11.32 14.71 11.32 16.57 C11.33 19.92 11.32 23.27 11.32 26.62 C11.32 30.12 11.32 33.62 11.32 37.11 C11.33 42.99 11.32 48.86 11.32 54.74 C11.31 61.54 11.31 68.34 11.32 75.14 C11.32 80.97 11.32 86.8 11.32 92.63 C11.32 96.12 11.32 99.6 11.32 103.09 C11.33 106.97 11.32 110.86 11.32 114.74 C11.32 115.9 11.32 117.07 11.32 118.27 C11.32 119.32 11.32 120.37 11.31 121.45 C11.31 122.83 11.31 122.83 11.31 124.24 C11.19 126.31 11.19 126.31 10.19 127.31 C6.45 127.65 2.69 127.64 -1.06 127.69 C-2.11 127.72 -3.16 127.76 -4.25 127.8 C-12.01 127.89 -12.01 127.89 -15.63 125.29 C-16.35 124.3 -17.07 123.32 -17.81 122.31 C-18.86 121.07 -19.92 119.83 -20.98 118.6 C-22.13 117.19 -23.29 115.78 -24.44 114.38 C-25.05 113.63 -25.66 112.89 -26.29 112.12 C-30.62 106.81 -34.89 101.46 -39.08 96.04 C-42.2 92.02 -45.47 88.15 -48.81 84.31 C-55.96 92.93 -63.07 101.57 -69.96 110.39 C-80.86 124.36 -80.86 124.36 -83.81 127.31 C-85.96 127.4 -88.11 127.42 -90.25 127.41 C-91.56 127.41 -92.86 127.4 -94.21 127.4 C-95.6 127.39 -96.99 127.38 -98.38 127.38 C-99.77 127.37 -101.16 127.37 -102.55 127.36 C-105.97 127.35 -109.39 127.33 -112.81 127.31 C-112.22 124.19 -111.29 122.34 -109.26 119.91 C-108.73 119.28 -108.2 118.64 -107.66 117.98 C-107.09 117.31 -106.52 116.63 -105.94 115.94 C-104.74 114.49 -103.55 113.05 -102.35 111.6 C-101.75 110.88 -101.15 110.16 -100.54 109.41 C-98.08 106.42 -95.69 103.37 -93.31 100.31 C-89.37 95.26 -85.36 90.27 -81.31 85.31 C-76.78 79.76 -72.32 74.17 -67.91 68.53 C-64.07 63.63 -60.19 58.77 -56.29 53.92 C-52.96 49.76 -49.66 45.57 -46.38 41.38 C-41.88 35.62 -37.29 29.95 -32.66 24.3 C-29.98 21.01 -27.33 17.71 -24.75 14.33 C-24.27 13.69 -23.78 13.06 -23.28 12.41 C-22.38 11.22 -21.48 10.03 -20.59 8.83 C-14.53 0.9 -9.51 -0.29 0 0 Z M-14.81 37.31 C-16.4 39.17 -17.86 41.04 -19.31 43 C-20.21 44.19 -21.1 45.37 -21.99 46.55 C-22.45 47.17 -22.91 47.79 -23.39 48.42 C-25.71 51.51 -28.08 54.57 -30.44 57.62 C-31.28 58.73 -32.13 59.83 -32.98 60.93 C-33.58 61.71 -34.19 62.5 -34.81 63.31 C-33.09 67.33 -30.4 70.56 -27.69 73.94 C-26.96 74.86 -26.96 74.86 -26.21 75.8 C-25.22 77.04 -24.23 78.29 -23.23 79.53 C-21.93 81.16 -20.64 82.81 -19.34 84.45 C-18.28 85.81 -18.28 85.81 -17.19 87.19 C-16.24 88.39 -16.24 88.39 -15.27 89.62 C-14.79 90.18 -14.31 90.74 -13.81 91.31 C-13.48 91.31 -13.15 91.31 -12.81 91.31 C-12.81 73.49 -12.81 55.67 -12.81 37.31 C-13.47 37.31 -14.13 37.31 -14.81 37.31 Z " fill="#FF4654" transform="translate(178.8125,485.6875)"/>
<path d="M0 0 C0.91 0.01 1.82 0.02 2.76 0.03 C3.75 0.04 4.73 0.04 5.75 0.05 C7.3 0.08 7.3 0.08 8.88 0.1 C9.92 0.11 10.96 0.12 12.03 0.13 C14.61 0.15 17.18 0.19 19.75 0.23 C21.33 3.39 20.93 6.79 20.96 10.26 C20.97 11.09 20.98 11.92 20.99 12.77 C21.02 15.52 21.05 18.27 21.07 21.02 C21.09 22.92 21.11 24.82 21.13 26.72 C21.19 31.74 21.24 36.75 21.29 41.77 C21.34 46.88 21.39 52 21.45 57.11 C21.55 67.15 21.66 77.19 21.75 87.23 C22.88 85.79 22.88 85.79 24.04 84.32 C25.03 83.05 26.03 81.77 27.03 80.5 C27.53 79.87 28.02 79.24 28.53 78.59 C32.06 74.1 35.63 69.64 39.25 65.23 C43.3 60.27 47.31 55.28 51.25 50.23 C55.73 44.49 60.31 38.84 64.91 33.2 C68.49 28.81 72.01 24.38 75.5 19.91 C87.81 4.17 87.81 4.17 91.75 0.23 C94.55 0 94.55 0 98.07 0.03 C99.96 0.04 99.96 0.04 101.88 0.05 C103.86 0.08 103.86 0.08 105.88 0.1 C107.22 0.11 108.56 0.12 109.9 0.13 C113.18 0.15 116.47 0.19 119.75 0.23 C119.75 4.49 119.65 4.84 117.08 7.84 C116.5 8.53 115.93 9.21 115.34 9.91 C114.71 10.63 114.08 11.36 113.44 12.1 C112.14 13.64 110.85 15.18 109.55 16.72 C108.9 17.48 108.26 18.24 107.59 19.03 C105.05 22.06 102.61 25.17 100.19 28.29 C96.27 33.32 92.29 38.29 88.25 43.23 C83.75 48.75 79.31 54.32 74.92 59.94 C71.4 64.43 67.8 68.87 64.19 73.29 C60.3 78.05 56.48 82.84 52.75 87.73 C48.5 93.31 44.1 98.76 39.66 104.19 C35.46 109.34 31.33 114.54 27.27 119.8 C26.11 121.29 24.93 122.76 23.75 124.23 C23.33 124.77 22.9 125.32 22.46 125.88 C20.03 127.8 18.28 127.57 15.21 127.52 C14.14 127.51 13.06 127.5 11.96 127.49 C10.84 127.47 9.72 127.44 8.57 127.41 C7.43 127.4 6.3 127.39 5.14 127.37 C2.34 127.34 -0.45 127.29 -3.25 127.23 C-4.49 124.75 -4.38 123.1 -4.38 120.33 C-4.38 119.3 -4.39 118.26 -4.39 117.19 C-4.39 116.05 -4.39 114.92 -4.39 113.74 C-4.4 112.54 -4.4 111.35 -4.4 110.11 C-4.41 106.83 -4.41 103.54 -4.41 100.25 C-4.41 97.51 -4.42 94.77 -4.42 92.03 C-4.43 85.56 -4.43 79.1 -4.43 72.63 C-4.43 65.96 -4.44 59.28 -4.46 52.6 C-4.47 46.88 -4.48 41.15 -4.48 35.42 C-4.48 32 -4.48 28.58 -4.49 25.16 C-4.5 21.34 -4.5 17.53 -4.49 13.71 C-4.5 12.57 -4.5 11.43 -4.51 10.26 C-4.5 9.22 -4.5 8.19 -4.49 7.12 C-4.49 6.22 -4.49 5.32 -4.5 4.39 C-4.13 1.26 -3.12 0.32 0 0 Z " fill="#FF4555" transform="translate(5.24658203125,485.77294921875)"/>
<path d="M0 0 C1.16 0 1.16 0 2.33 0 C3.15 -0 3.96 -0.01 4.79 -0.02 C7.49 -0.04 10.18 -0.04 12.87 -0.04 C14.74 -0.05 16.61 -0.06 18.48 -0.06 C22.4 -0.07 26.32 -0.08 30.24 -0.08 C35.26 -0.08 40.29 -0.1 45.31 -0.14 C49.17 -0.16 53.03 -0.17 56.9 -0.16 C58.75 -0.17 60.6 -0.18 62.45 -0.19 C65.04 -0.21 67.64 -0.2 70.23 -0.19 C70.99 -0.2 71.76 -0.22 72.55 -0.23 C77.49 -0.17 79.98 0.81 83.48 4.29 C85.02 5.97 85.02 5.97 86.3 7.61 C86.77 8.21 87.24 8.81 87.73 9.43 C88.2 10.04 88.68 10.66 89.16 11.29 C89.65 11.91 90.13 12.53 90.63 13.16 C92.91 16.09 95.01 18.86 96.48 22.29 C95.98 22.79 95.98 22.79 95.48 23.29 C81.29 23.29 67.1 23.29 52.48 23.29 C52.48 57.61 52.48 91.93 52.48 127.29 C44.89 127.29 37.3 127.29 29.48 127.29 C28.48 126.29 28.48 126.29 28.35 124.56 C28.35 123.8 28.35 123.04 28.36 122.26 C28.35 121.39 28.35 120.53 28.35 119.63 C28.36 118.19 28.36 118.19 28.36 116.72 C28.36 115.72 28.36 114.72 28.36 113.68 C28.36 110.34 28.37 107 28.38 103.66 C28.38 101.36 28.38 99.05 28.38 96.74 C28.39 90.65 28.4 84.57 28.41 78.48 C28.42 72.27 28.42 66.06 28.43 59.86 C28.44 47.67 28.45 35.48 28.48 23.29 C26.95 23.31 26.95 23.31 25.39 23.33 C21.61 23.36 17.84 23.38 14.06 23.4 C12.42 23.41 10.79 23.43 9.15 23.44 C6.81 23.47 4.46 23.48 2.11 23.49 C1.01 23.5 1.01 23.5 -0.11 23.52 C-1.92 23.52 -3.72 23.42 -5.52 23.29 C-7.93 20.88 -7.78 20.3 -7.79 17.01 C-7.79 16.17 -7.79 15.33 -7.8 14.46 C-7.79 13.14 -7.79 13.14 -7.77 11.79 C-7.78 10.91 -7.79 10.03 -7.8 9.13 C-7.79 8.28 -7.79 7.44 -7.79 6.57 C-7.79 5.8 -7.79 5.03 -7.78 4.23 C-7.17 -0.38 -3.88 0.05 0 0 Z " fill="#FF4654" transform="translate(836.5240478515625,485.70672607421875)"/>
<path d="M0 0 C3.62 -0.06 7.25 -0.09 10.88 -0.12 C11.91 -0.14 12.94 -0.16 14 -0.18 C14.99 -0.18 15.98 -0.19 16.99 -0.2 C18.36 -0.21 18.36 -0.21 19.75 -0.23 C22 0 22 0 24 2 C24.25 3.85 24.25 3.85 24.24 6.15 C24.24 7.02 24.25 7.89 24.25 8.79 C24.24 9.74 24.23 10.7 24.23 11.68 C24.23 12.69 24.23 13.69 24.23 14.73 C24.23 18.06 24.21 21.39 24.2 24.73 C24.19 27.03 24.19 29.34 24.19 31.65 C24.18 37.73 24.16 43.8 24.14 49.88 C24.11 57.17 24.1 64.46 24.09 71.75 C24.07 82.84 24.03 93.92 24 105 C41.82 105 59.64 105 78 105 C77.03 108.9 76.35 110.12 73.88 113.07 C73.25 113.82 72.63 114.57 71.98 115.35 C71 116.5 71 116.5 70 117.69 C69.35 118.47 68.69 119.26 68.02 120.06 C63.3 125.7 63.3 125.7 62 127 C60.07 127.1 58.14 127.13 56.21 127.13 C54.97 127.13 53.73 127.14 52.46 127.14 C51.1 127.14 49.74 127.14 48.38 127.13 C46.99 127.13 45.6 127.13 44.22 127.14 C41.31 127.14 38.4 127.14 35.49 127.13 C31.75 127.12 28.02 127.13 24.28 127.13 C21.42 127.14 18.55 127.14 15.69 127.13 C14.31 127.13 12.94 127.13 11.56 127.14 C9.63 127.14 7.71 127.13 5.79 127.13 C4.14 127.13 4.14 127.13 2.47 127.13 C0 127 0 127 -1 126 C-1.1 124.4 -1.13 122.79 -1.13 121.19 C-1.13 120.14 -1.13 119.1 -1.14 118.03 C-1.13 116.88 -1.13 115.72 -1.13 114.54 C-1.13 113.33 -1.13 112.12 -1.13 110.88 C-1.14 107.56 -1.14 104.24 -1.13 100.93 C-1.13 97.46 -1.13 93.99 -1.14 90.53 C-1.14 84.7 -1.14 78.88 -1.13 73.06 C-1.12 66.32 -1.13 59.58 -1.13 52.84 C-1.14 47.06 -1.14 41.29 -1.13 35.51 C-1.13 32.05 -1.13 28.6 -1.14 25.15 C-1.14 21.29 -1.13 17.44 -1.13 13.59 C-1.13 12.44 -1.13 11.29 -1.14 10.11 C-1.13 9.06 -1.13 8.02 -1.13 6.94 C-1.13 6.03 -1.13 5.12 -1.13 4.18 C-1 2 -1 2 0 0 Z " fill="#FF4655" transform="translate(219,486)"/>
<path d="M0 0 C0.99 0 1.98 0 3 0 C3.99 2.31 4.98 4.62 6 7 C7.55 4.68 8.8 2.49 10 0 C10.99 0.33 11.98 0.66 13 1 C13 4.63 13 8.26 13 12 C12.34 12 11.68 12 11 12 C10.67 10.02 10.34 8.04 10 6 C9.01 7.98 8.02 9.96 7 12 C6.34 12 5.68 12 5 12 C4.34 10.35 3.68 8.7 3 7 C2.67 8.65 2.34 10.3 2 12 C1.34 12 0.68 12 0 12 C0 8.04 0 4.08 0 0 Z " fill="#FF4654" transform="translate(920,601)"/>
<path d="M0 0 C2.97 0 5.94 0 9 0 C9 0.66 9 1.32 9 2 C7.68 2 6.36 2 5 2 C5 5.3 5 8.6 5 12 C4.34 12 3.68 12 3 12 C3 9.03 3 6.06 3 3 C2.01 2.67 1.02 2.34 0 2 C0 1.34 0 0.68 0 0 Z " fill="#FF4655" transform="translate(909,601)"/>
</svg>
