<?xml version="1.0" encoding="UTF-8"?>
<!-- Generator: https://ezgif.com/png-to-svg -->
<svg version="1.1" xmlns="http://www.w3.org/2000/svg" width="1024" height="721">
<path d="M0 0 C2.77 0.08 5.55 0.16 8.32 0.24 C47.86 1.38 87.37 2.87 126.87 4.96 C129.17 5.08 131.47 5.2 133.77 5.32 C188.78 8.19 237.42 12.96 277.41 54.83 C282.81 61 286.83 67.9 290.73 75.08 C291.31 76.15 291.9 77.22 292.5 78.32 C306.82 106.84 313.66 139.57 316.73 171.08 C316.8 171.82 316.87 172.56 316.95 173.32 C319.19 196 321.01 218.71 322.41 241.46 C322.48 242.42 322.54 243.38 322.6 244.37 C323.03 251.27 323.4 258.17 323.73 265.08 C323.78 266.1 323.83 267.12 323.88 268.17 C325.13 295.35 324.91 322.57 324.91 349.77 C324.91 354.45 324.92 359.13 324.93 363.81 C325.04 408.21 324.39 452.55 320.85 496.83 C320.68 499.08 320.5 501.33 320.33 503.58 C319.82 510.08 319.28 516.58 318.73 523.08 C318.65 524.04 318.57 524.99 318.49 525.98 C314.48 573.7 306.86 627.06 273.73 664.08 C273.19 664.69 272.65 665.3 272.1 665.92 C214.73 726.88 100.13 711.79 15.4 714.48 C8.51 714.68 1.62 714.88 -5.27 715.08 C-6.23 715.11 -7.18 715.14 -8.16 715.16 C-93.47 717.6 -178.86 717.92 -354.27 715.08 C-355.37 715.05 -356.48 715.03 -357.61 715 C-401.67 713.89 -445.74 712.72 -489.77 710.58 C-490.91 710.53 -492.06 710.47 -493.23 710.42 C-600.01 705.28 -600.01 705.28 -638.27 672.08 C-639.54 671.02 -639.54 671.02 -640.82 669.93 C-684.05 632.54 -688.83 565.05 -693.27 512.08 C-693.35 511.13 -693.43 510.18 -693.51 509.2 C-697.52 461.16 -698.62 413.05 -698.53 364.86 C-698.52 358.32 -698.53 351.79 -698.54 345.26 C-698.6 302.72 -697.69 260.25 -694.4 217.83 C-694.31 216.71 -694.23 215.58 -694.14 214.42 C-684.11 81.79 -684.11 81.79 -636.69 40.71 C-572.9 -12.7 -457.43 2.47 -379.11 0.16 C-376.34 0.08 -373.56 -0 -370.79 -0.08 C-278.54 -2.84 -186.15 -2.65 0 0 Z " fill="#D12222" transform="translate(699.272705078125,2.9191513061523438)"/>
<path d="M0 0 C6.75 2.25 6.75 2.25 9.96 3.9 C10.68 4.27 11.4 4.64 12.14 5.02 C12.9 5.42 13.66 5.81 14.45 6.22 C15.26 6.64 16.07 7.05 16.91 7.48 C19.5 8.82 22.1 10.16 24.69 11.5 C26.38 12.37 28.07 13.24 29.76 14.11 C38.97 18.85 48.15 23.65 57.32 28.48 C64.03 32.02 70.76 35.52 77.5 39 C85.92 43.36 94.33 47.74 102.72 52.17 C109.63 55.82 116.56 59.41 123.5 63 C131.92 67.36 140.33 71.74 148.72 76.17 C155.63 79.82 162.56 83.41 169.5 87 C177.92 91.36 186.33 95.74 194.72 100.17 C201.63 103.82 208.56 107.41 215.5 111 C223.91 115.35 232.3 119.73 240.68 124.15 C252.08 130.17 263.55 136.07 275 142 C275 142.66 275 143.32 275 144 C274.31 144.34 273.62 144.68 272.91 145.03 C261.14 150.89 249.37 156.74 237.75 162.91 C229.79 167.14 221.77 171.25 213.75 175.38 C204.32 180.22 194.9 185.08 185.5 190 C176.19 194.87 166.85 199.69 157.5 204.5 C147.16 209.82 136.83 215.16 126.53 220.55 C118.95 224.51 111.35 228.45 103.75 232.38 C103.14 232.69 102.53 233.01 101.89 233.33 C101.28 233.65 100.67 233.97 100.04 234.29 C98.8 234.93 97.56 235.57 96.33 236.21 C95.72 236.53 95.1 236.84 94.47 237.17 C88.15 240.44 81.82 243.72 75.5 247 C65.57 252.15 55.63 257.3 45.69 262.44 C38.92 265.94 32.15 269.44 25.38 272.95 C24.76 273.27 24.14 273.6 23.5 273.93 C20.55 275.46 17.6 276.99 14.65 278.52 C13.6 279.07 12.55 279.61 11.47 280.17 C10.56 280.65 9.64 281.12 8.7 281.61 C5.81 283.1 2.9 284.55 0 286 C0 191.62 0 97.24 0 0 Z " fill="#FEFEFE" transform="translate(407,207)"/>
<path d="M0 0 C4.5 1.38 8.52 3.17 12.7 5.34 C13.64 5.83 13.64 5.83 14.6 6.33 C16.63 7.38 18.66 8.44 20.69 9.5 C22.1 10.23 23.51 10.97 24.93 11.7 C32.94 15.86 40.94 20.05 48.92 24.27 C55.76 27.89 62.63 31.44 69.5 35 C77.92 39.36 86.33 43.74 94.72 48.17 C101.63 51.82 108.56 55.41 115.5 59 C123.92 63.36 132.33 67.74 140.72 72.17 C147.63 75.82 154.56 79.41 161.5 83 C169.92 87.36 178.33 91.74 186.72 96.17 C193.63 99.82 200.56 103.41 207.5 107 C215.91 111.35 224.3 115.73 232.68 120.15 C244.08 126.17 255.55 132.07 267 138 C267 138.66 267 139.32 267 140 C255.67 145.67 244.33 151.33 233 157 C232.44 156.58 231.88 156.15 231.3 155.71 C222.71 149.34 213.78 143.52 204.83 137.66 C188.63 127.07 172.52 116.35 156.5 105.5 C142.07 95.73 127.57 86.07 113 76.5 C96.54 65.69 80.18 54.75 63.87 43.71 C51.4 35.28 38.9 26.9 26.38 18.56 C25.55 18.02 24.73 17.47 23.88 16.9 C22.3 15.85 20.72 14.8 19.14 13.75 C17.68 12.77 16.21 11.8 14.75 10.82 C11.81 8.87 8.88 6.92 5.93 4.99 C5.1 4.44 4.27 3.9 3.41 3.34 C2.74 2.9 2.06 2.46 1.36 2 C0.91 1.67 0.46 1.34 0 1 C0 0.67 0 0.34 0 0 Z " fill="#E8DFDF" transform="translate(415,211)"/>
</svg>
